Newsreader-DisplayItalic.ufo
<glyph name="quotesingle" format="2">
  <advance width="371"/>
  <unicode hex="0027"/>
  <outline>
    <contour>
      <point x="286.0" y="931.0" type="line"/>
      <point x="315.0" y="931.0" type="line"/>
      <point x="558.0" y="1393.0" type="line"/>
      <point x="569.0" y="1430.0" type="line"/>
      <point x="350.0" y="1430.0" type="line"/>
      <point x="338.0" y="1393.0" type="line"/>
    </contour>
  </outline>
</glyph>
<glyph name="asterisk" format="2">
  <advance width="781"/>
  <unicode hex="002A"/>
  <outline>
    <contour>
      <point x="712.0" y="868.0" type="line"/>
      <point x="648.0" y="1107.0" type="line"/>
      <point x="889.0" y="1161.0" type="line"/>
      <point x="887.0" y="1186.0" type="line"/>
      <point x="641.0" y="1199.0" type="line"/>
      <point x="670.0" y="1446.0" type="line"/>
      <point x="645.0" y="1453.0" type="line"/>
      <point x="552.0" y="1221.0" type="line"/>
      <point x="325.0" y="1323.0" type="line"/>
      <point x="311.0" y="1300.0" type="line"/>
      <point x="503.0" y="1143.0" type="line"/>
      <point x="338.0" y="959.0" type="line"/>
      <point x="355.0" y="940.0" type="line"/>
      <point x="563.0" y="1072.0" type="line"/>
      <point x="689.0" y="859.0" type="line"/>
    </contour>
  </outline>
</glyph>
<glyph name="hyphen" format="2">
  <advance width="629"/>
  <unicode hex="002D"/>
  <outline>
    <contour>
      <point x="141.0" y="575.0" type="line"/>
      <point x="105.0" y="458.0" type="line"/>
      <point x="490.0" y="458.0" type="line"/>
      <point x="526.0" y="575.0" type="line"/>
    </contour>
  </outline>
</glyph>
<glyph name="period" format="2">
  <advance width="456"/>
  <unicode hex="002E"/>
  <outline>
    <contour>
      <point x="151.0" y="258.0" type="curve" smooth="yes"/>
      <point x="59.0" y="258.0"/>
      <point x="-12.0" y="186.0"/>
      <point x="-12.0" y="95.0" type="curve" smooth="yes"/>
      <point x="-12.0" y="27.0"/>
      <point x="35.0" y="-19.0"/>
      <point x="107.0" y="-19.0" type="curve" smooth="yes"/>
      <point x="199.0" y="-19.0"/>
      <point x="270.0" y="53.0"/>
      <point x="270.0" y="144.0" type="curve" smooth="yes"/>
      <point x="270.0" y="212.0"/>
      <point x="223.0" y="258.0"/>
    </contour>
  </outline>
</glyph>
<glyph name="slash" format="2">
  <advance width="809"/>
  <unicode hex="002F"/>
  <outline>
    <contour>
      <point x="-71.0" y="0.0" type="line"/>
      <point x="2.0" y="0.0" type="line"/>
      <point x="1006.0" y="1430.0" type="line"/>
      <point x="933.0" y="1430.0" type="line"/>
    </contour>
  </outline>
</glyph>
<glyph name="one" format="2">
  <advance width="1200"/>
  <unicode hex="0031"/>
  <outline>
    <contour>
      <point x="441.0" y="70.0" type="line"/>
      <point x="110.0" y="20.0" type="line"/>
      <point x="101.0" y="0.0" type="line"/>
      <point x="934.0" y="0.0" type="line"/>
      <point x="944.0" y="20.0" type="line"/>
      <point x="627.0" y="70.0" type="line"/>
      <point x="1048.0" y="1450.0" type="line"/>
      <point x="1019.0" y="1450.0" type="line"/>
      <point x="344.0" y="1135.0" type="line"/>
      <point x="351.0" y="1117.0" type="line"/>
      <point x="887.0" y="1265.0" type="line"/>
      <point x="826.0" y="1332.0" type="line"/>
    </contour>
  </outline>
</glyph>
<glyph name="less" format="2">
  <advance width="1150"/>
  <unicode hex="003C"/>
  <guideline x="1101.0" y="909" angle="175.69550094126706" identifier="esrSiEq7Dn"/>
  <outline>
    <contour>
      <point x="197.0" y="497.0" type="line"/>
      <point x="1077.0" y="829.0" type="line"/>
      <point x="1101.0" y="909.0" type="line"/>
      <point x="154.0" y="545.0" type="line"/>
      <point x="134.0" y="479.0" type="line"/>
      <point x="859.0" y="115.0" type="line"/>
      <point x="879.0" y="181.0" type="line"/>
      <point x="203.0" y="519.0" type="line"/>
    </contour>
  </outline>
</glyph>
<glyph name="greater" format="2">
  <advance width="1150"/>
  <unicode hex="003E"/>
  <outline>
    <contour>
      <point x="952.0" y="527.0" type="line"/>
      <point x="72.0" y="195.0" type="line"/>
      <point x="48.0" y="115.0" type="line"/>
      <point x="995.0" y="479.0" type="line"/>
      <point x="1015.0" y="545.0" type="line"/>
      <point x="290.0" y="909.0" type="line"/>
      <point x="270.0" y="843.0" type="line"/>
      <point x="946.0" y="505.0" type="line"/>
    </contour>
  </outline>
</glyph>
<glyph name="C" format="2">
  <advance width="1384"/>
  <unicode hex="0043"/>
  <anchor x="993.0" y="1430.0" name="UCtop"/>
  <anchor x="645.0" y="0" name="bottom"/>
  <anchor x="1108.0" y="0" name="right"/>
  <outline>
    <contour>
      <point x="1081.0" y="144.0" type="line"/>
      <point x="954.0" y="51.0"/>
      <point x="819.0" y="20.0"/>
      <point x="705.0" y="20.0" type="curve" smooth="yes"/>
      <point x="482.0" y="20.0"/>
      <point x="325.0" y="172.0"/>
      <point x="325.0" y="505.0" type="curve" smooth="yes"/>
      <point x="325.0" y="1013.0"/>
      <point x="630.0" y="1404.0"/>
      <point x="1069.0" y="1404.0" type="curve" smooth="yes"/>
      <point x="1185.0" y="1404.0"/>
      <point x="1273.0" y="1376.0"/>
      <point x="1353.0" y="1283.0" type="curve"/>
      <point x="1308.0" y="1362.0" type="line"/>
      <point x="1396.0" y="994.0" type="line"/>
      <point x="1421.0" y="994.0" type="line"/>
      <point x="1465.0" y="1484.0" type="line"/>
      <point x="1452.0" y="1484.0" type="line"/>
      <point x="1316.0" y="1398.0" type="line"/>
      <point x="1409.0" y="1412.0" type="line"/>
      <point x="1310.0" y="1438.0"/>
      <point x="1218.0" y="1450.0"/>
      <point x="1112.0" y="1450.0" type="curve" smooth="yes"/>
      <point x="585.0" y="1450.0"/>
      <point x="140.0" y="1082.0"/>
      <point x="140.0" y="525.0" type="curve" smooth="yes"/>
      <point x="140.0" y="185.0"/>
      <point x="359.0" y="-20.0"/>
      <point x="697.0" y="-20.0" type="curve" smooth="yes"/>
      <point x="833.0" y="-20.0"/>
      <point x="966.0" y="-6.0"/>
      <point x="1117.0" y="34.0" type="curve"/>
      <point x="1288.0" y="361.0" type="line"/>
      <point x="1264.0" y="361.0" type="line"/>
      <point x="988.0" y="72.0" type="line"/>
    </contour>
  </outline>
</glyph>
<glyph name="H" format="2">
  <advance width="1586"/>
  <unicode hex="0048"/>
  <anchor x="1044.0" y="1430.0" name="UCtop"/>
  <anchor x="666.0" y="0" name="bottom"/>
  <outline>
    <contour>
      <point x="384.0" y="712.0" type="line"/>
      <point x="1318.0" y="712.0" type="line"/>
      <point x="1337.0" y="768.0" type="line"/>
      <point x="402.0" y="768.0" type="line"/>
    </contour>
    <contour>
      <point x="505.0" y="1370.0" type="line"/>
      <point x="106.0" y="60.0" type="line"/>
      <point x="-72.0" y="20.0" type="line"/>
      <point x="-78.0" y="0.0" type="line"/>
      <point x="458.0" y="0.0" type="line"/>
      <point x="463.0" y="20.0" type="line"/>
      <point x="301.0" y="60.0" type="line"/>
      <point x="700.0" y="1370.0" type="line"/>
      <point x="878.0" y="1410.0" type="line"/>
      <point x="884.0" y="1430.0" type="line"/>
      <point x="348.0" y="1430.0" type="line"/>
      <point x="342.0" y="1410.0" type="line"/>
    </contour>
    <contour>
      <point x="1406.0" y="1370.0" type="line"/>
      <point x="1007.0" y="60.0" type="line"/>
      <point x="829.0" y="20.0" type="line"/>
      <point x="823.0" y="0.0" type="line"/>
      <point x="1359.0" y="0.0" type="line"/>
      <point x="1365.0" y="20.0" type="line"/>
      <point x="1203.0" y="60.0" type="line"/>
      <point x="1602.0" y="1370.0" type="line"/>
      <point x="1779.0" y="1410.0" type="line"/>
      <point x="1785.0" y="1430.0" type="line"/>
      <point x="1249.0" y="1430.0" type="line"/>
      <point x="1244.0" y="1410.0" type="line"/>
    </contour>
  </outline>
</glyph>
<glyph name="O" format="2">
  <advance width="1542"/>
  <unicode hex="004F"/>
  <guideline x="832.0" y="716" angle="2.2543681294439235" identifier="yOhZzhy5g0"/>
  <guideline x="1492.0" y="647" angle="2.2543681294439235" identifier="TXa6BRiOpD"/>
  <anchor x="1051.0" y="1430.0" name="UCtop"/>
  <anchor x="583.0" y="0" name="bottom"/>
  <anchor x="723.0" y="0" name="right"/>
  <anchor x="1417.0" y="1430.0" name="horn"/>
  <outline>
    <contour>
      <point x="319.0" y="451.0" type="curve" smooth="yes"/>
      <point x="319.0" y="851.0"/>
      <point x="576.0" y="1403.0"/>
      <point x="999.0" y="1403.0" type="curve" smooth="yes"/>
      <point x="1217.0" y="1403.0"/>
      <point x="1346.0" y="1259.0"/>
      <point x="1346.0" y="979.0" type="curve" smooth="yes"/>
      <point x="1346.0" y="579.0"/>
      <point x="1089.0" y="27.0"/>
      <point x="666.0" y="27.0" type="curve" smooth="yes"/>
      <point x="448.0" y="27.0"/>
      <point x="319.0" y="171.0"/>
    </contour>
    <contour>
      <point x="1528.0" y="907.0" type="curve" smooth="yes"/>
      <point x="1528.0" y="1244.0"/>
      <point x="1320.0" y="1450.0"/>
      <point x="985.0" y="1450.0" type="curve" smooth="yes"/>
      <point x="505.0" y="1450.0"/>
      <point x="137.0" y="987.0"/>
      <point x="137.0" y="523.0" type="curve" smooth="yes"/>
      <point x="137.0" y="186.0"/>
      <point x="345.0" y="-20.0"/>
      <point x="680.0" y="-20.0" type="curve" smooth="yes"/>
      <point x="1160.0" y="-20.0"/>
      <point x="1528.0" y="443.0"/>
    </contour>
  </outline>
</glyph>
<glyph name="W" format="2">
  <advance width="1928"/>
  <unicode hex="0057"/>
  <guideline x="607.0" y="1369" angle="179.02886130000533" identifier="Re2srDOHyt"/>
  <guideline x="1245.0" y="-20" angle="180.97077976276785" identifier="5afAcYJJ8X"/>
  <anchor x="1280.0" y="1430.0" name="UCtop"/>
  <anchor x="842.0" y="0" name="bottom"/>
  <outline>
    <contour>
      <point x="1987.0" y="1369.0" type="line"/>
      <point x="1340.0" y="228.0" type="line"/>
      <point x="1390.0" y="228.0" type="line"/>
      <point x="1332.0" y="1450.0" type="line"/>
      <point x="1285.0" y="1450.0" type="line"/>
      <point x="495.0" y="228.0" type="line"/>
      <point x="539.0" y="228.0" type="line"/>
      <point x="572.0" y="1369.0" type="line"/>
      <point x="750.0" y="1410.0" type="line"/>
      <point x="755.0" y="1430.0" type="line"/>
      <point x="243.0" y="1430.0" type="line"/>
      <point x="239.0" y="1410.0" type="line"/>
      <point x="381.0" y="1367.0" type="line"/>
      <point x="348.0" y="-20.0" type="line"/>
      <point x="384.0" y="-20.0" type="line"/>
      <point x="1233.0" y="1275.0" type="line"/>
      <point x="1155.0" y="1222.0" type="line"/>
      <point x="1213.0" y="-20.0" type="line"/>
      <point x="1249.0" y="-20.0" type="line"/>
      <point x="2049.0" y="1366.0" type="line"/>
      <point x="2215.0" y="1410.0" type="line"/>
      <point x="2219.0" y="1430.0" type="line"/>
      <point x="1831.0" y="1430.0" type="line"/>
      <point x="1826.0" y="1410.0" type="line"/>
    </contour>
  </outline>
</glyph>
<glyph name="X" format="2">
  <advance width="1369"/>
  <unicode hex="0058"/>
  <anchor x="1030.0" y="1430.0" name="UCtop"/>
  <anchor x="472.0" y="0" name="bottom"/>
  <outline>
    <contour>
      <point x="729.0" y="700.0" type="line"/>
      <point x="795.0" y="742.0" type="line"/>
      <point x="1436.0" y="1359.0" type="line"/>
      <point x="1597.0" y="1410.0" type="line"/>
      <point x="1603.0" y="1430.0" type="line"/>
      <point x="1204.0" y="1430.0" type="line"/>
      <point x="1199.0" y="1410.0" type="line"/>
      <point x="1364.0" y="1362.0" type="line"/>
      <point x="770.0" y="785.0" type="line"/>
      <point x="701.0" y="745.0" type="line"/>
      <point x="4.0" y="71.0" type="line"/>
      <point x="-157.0" y="20.0" type="line"/>
      <point x="-164.0" y="0.0" type="line"/>
      <point x="241.0" y="0.0" type="line"/>
      <point x="247.0" y="20.0" type="line"/>
      <point x="82.0" y="68.0" type="line"/>
    </contour>
    <contour>
      <point x="891.0" y="61.0" type="line"/>
      <point x="722.0" y="20.0" type="line"/>
      <point x="715.0" y="0.0" type="line"/>
      <point x="1238.0" y="0.0" type="line"/>
      <point x="1244.0" y="20.0" type="line"/>
      <point x="1093.0" y="63.0" type="line"/>
      <point x="842.0" y="808.0" type="line"/>
      <point x="834.0" y="832.0" type="line"/>
      <point x="657.0" y="1369.0" type="line"/>
      <point x="827.0" y="1410.0" type="line"/>
      <point x="832.0" y="1430.0" type="line"/>
      <point x="310.0" y="1430.0" type="line"/>
      <point x="304.0" y="1410.0" type="line"/>
      <point x="455.0" y="1367.0" type="line"/>
      <point x="679.0" y="704.0" type="line"/>
      <point x="688.0" y="679.0" type="line"/>
    </contour>
  </outline>
</glyph>
<glyph name="Z" format="2">
  <advance width="1250"/>
  <unicode hex="005A"/>
  <anchor x="955.0" y="1430.0" name="UCtop"/>
  <anchor x="467.0" y="0" name="bottom"/>
  <outline>
    <contour>
      <point x="1419.0" y="1430.0" type="line"/>
      <point x="559.0" y="1430.0" type="line"/>
      <point x="455.0" y="1493.0" type="line"/>
      <point x="443.0" y="1493.0" type="line"/>
      <point x="230.0" y="1041.0" type="line"/>
      <point x="248.0" y="1028.0" type="line"/>
      <point x="560.0" y="1374.0" type="line"/>
      <point x="1334.0" y="1374.0" type="line"/>
      <point x="1190.0" y="1407.0" type="line"/>
      <point x="-49.0" y="11.0" type="line"/>
      <point x="-52.0" y="0.0" type="line"/>
      <point x="825.0" y="0.0" type="line"/>
      <point x="931.0" y="-52.0" type="line"/>
      <point x="947.0" y="-52.0" type="line"/>
      <point x="1152.0" y="390.0" type="line"/>
      <point x="1132.0" y="403.0" type="line"/>
      <point x="829.0" y="56.0" type="line"/>
      <point x="134.0" y="56.0" type="line"/>
      <point x="181.0" y="26.0" type="line"/>
      <point x="1416.0" y="1418.0" type="line"/>
    </contour>
  </outline>
</glyph>
<glyph name="bracketright" format="2">
  <advance width="575"/>
  <unicode hex="005D"/>
  <outline>
    <contour>
      <point x="672.0" y="1464.0" type="line"/>
      <point x="321.0" y="1464.0" type="line"/>
      <point x="312.0" y="1435.0" type="line"/>
      <point x="521.0" y="1411.0" type="line"/>
      <point x="34.0" y="-180.0" type="line"/>
      <point x="-189.0" y="-204.0" type="line"/>
      <point x="-198.0" y="-233.0" type="line"/>
      <point x="153.0" y="-233.0" type="line"/>
    </contour>
  </outline>
</glyph>
<glyph name="d" format="2">
  <advance width="1029"/>
  <unicode hex="0064"/>
  <anchor x="811.0" y="1430.0" name="UCtop"/>
  <anchor x="1133.0" y="1464.0" name="right"/>
  <anchor x="373.0" y="0" name="bottom"/>
  <anchor x="928.0" y="1207" name="center"/>
  <outline>
    <contour>
      <point x="840.0" y="843.0" type="curve"/>
      <point x="847.0" y="877.0" type="line"/>
      <point x="800.0" y="985.0"/>
      <point x="726.0" y="1040.0"/>
      <point x="642.0" y="1040.0" type="curve" smooth="yes"/>
      <point x="333.0" y="1040.0"/>
      <point x="1.0" y="497.0"/>
      <point x="1.0" y="169.0" type="curve" smooth="yes"/>
      <point x="1.0" y="45.0"/>
      <point x="78.0" y="-20.0"/>
      <point x="183.0" y="-20.0" type="curve" smooth="yes"/>
      <point x="278.0" y="-20.0"/>
      <point x="410.0" y="48.0"/>
      <point x="667.0" y="441.0" type="curve"/>
      <point x="656.0" y="441.0" type="line"/>
      <point x="544.0" y="92.0" type="line" smooth="yes"/>
      <point x="518.0" y="11.0"/>
      <point x="539.0" y="-20.0"/>
      <point x="611.0" y="-20.0" type="curve" smooth="yes"/>
      <point x="709.0" y="-20.0"/>
      <point x="841.0" y="80.0"/>
      <point x="1013.0" y="323.0" type="curve"/>
      <point x="1004.0" y="330.0" type="line"/>
      <point x="834.0" y="148.0"/>
      <point x="722.0" y="101.0"/>
      <point x="671.0" y="117.0" type="curve"/>
      <point x="697.0" y="87.0" type="line"/>
      <point x="1139.0" y="1484.0" type="line"/>
      <point x="1136.0" y="1484.0" type="line"/>
      <point x="777.0" y="1407.0" type="line"/>
      <point x="776.0" y="1401.0" type="line"/>
      <point x="833.0" y="1364.0066225165563"/>
      <point x="891.0" y="1326.364238410596"/>
      <point x="927.0" y="1303.0" type="curve"/>
      <point x="649.0" y="446.0" type="line"/>
      <point x="472.0" y="193.0"/>
      <point x="352.0" y="111.0"/>
      <point x="275.0" y="111.0" type="curve" smooth="yes"/>
      <point x="219.0" y="111.0"/>
      <point x="178.0" y="141.0"/>
      <point x="178.0" y="226.0" type="curve" smooth="yes"/>
      <point x="178.0" y="472.0"/>
      <point x="444.0" y="975.0"/>
      <point x="686.0" y="975.0" type="curve" smooth="yes"/>
      <point x="752.0" y="975.0"/>
      <point x="802.0" y="945.0"/>
    </contour>
  </outline>
</glyph>
<glyph name="k" format="2">
  <advance width="975"/>
  <unicode hex="006B"/>
  <anchor x="809.0" y="1430.0" name="UCtop"/>
  <anchor x="375.0" y="0" name="bottom"/>
  <outline>
    <contour>
      <point x="622.0" y="1484.0" type="line"/>
      <point x="619.0" y="1484.0" type="line"/>
      <point x="260.0" y="1407.0" type="line"/>
      <point x="259.0" y="1401.0" type="line"/>
      <point x="316.0" y="1364.0066225165563"/>
      <point x="374.0" y="1326.364238410596"/>
      <point x="410.0" y="1303.0" type="curve"/>
      <point x="-18.0" y="0.0" type="line"/>
      <point x="145.0" y="0.0" type="line"/>
    </contour>
    <contour>
      <point x="322" y="563" type="line"/>
      <point x="459" y="34"/>
      <point x="505" y="-20"/>
      <point x="591" y="-20" type="curve" smooth="yes"/>
      <point x="682" y="-20"/>
      <point x="763" y="40"/>
      <point x="915" y="321" type="curve"/>
      <point x="903" y="328" type="line"/>
      <point x="778" y="142"/>
      <point x="718" y="100"/>
      <point x="672" y="100" type="curve" smooth="yes"/>
      <point x="620" y="100"/>
      <point x="560" y="209"/>
      <point x="443" y="680" type="curve"/>
      <point x="383" y="601" type="line"/>
      <point x="561" y="803"/>
      <point x="744" y="920"/>
      <point x="815" y="920" type="curve" smooth="yes"/>
      <point x="835.0" y="920.0"/>
      <point x="842" y="908"/>
      <point x="834" y="859" type="curve" smooth="yes"/>
      <point x="826" y="810"/>
      <point x="842.0" y="782.0"/>
      <point x="899" y="782" type="curve" smooth="yes"/>
      <point x="973" y="782"/>
      <point x="1042" y="843"/>
      <point x="1042" y="934" type="curve" smooth="yes"/>
      <point x="1042" y="997"/>
      <point x="1004" y="1044"/>
      <point x="919" y="1044" type="curve" smooth="yes"/>
      <point x="811" y="1044"/>
      <point x="683" y="956"/>
      <point x="324" y="571" type="curve"/>
    </contour>
  </outline>
</glyph>
<glyph name="l" format="2">
  <advance width="528"/>
  <unicode hex="006C"/>
  <anchor x="484.0" y="1430.0" name="UCtop"/>
  <anchor x="622.0" y="1464.0" name="right"/>
  <anchor x="93.0" y="0" name="bottom"/>
  <anchor x="523.0" y="582" name="mid"/>
  <outline>
    <contour>
      <point x="318.0" y="1364.0066225165563"/>
      <point x="376.0" y="1326.364238410596"/>
      <point x="412.0" y="1303.0" type="curve"/>
      <point x="24.0" y="92.0" type="line" smooth="yes"/>
      <point x="-3.0" y="9.0"/>
      <point x="18.0" y="-20.0"/>
      <point x="104.0" y="-20.0" type="curve" smooth="yes"/>
      <point x="192.0" y="-20.0"/>
      <point x="324.0" y="80.0"/>
      <point x="496.0" y="323.0" type="curve"/>
      <point x="487.0" y="330.0" type="line"/>
      <point x="294.0" y="127.0"/>
      <point x="191.0" y="99.0"/>
      <point x="160.0" y="124.0" type="curve"/>
      <point x="180.0" y="87.0" type="line"/>
      <point x="628.0" y="1484.0" type="line"/>
      <point x="625.0" y="1484.0" type="line"/>
      <point x="262.0" y="1407.0" type="line"/>
      <point x="261.0" y="1401.0" type="line"/>
    </contour>
  </outline>
</glyph>
<glyph name="p" format="2">
  <advance width="1096"/>
  <unicode hex="0070"/>
  <anchor x="700.0" y="1024.0" name="top"/>
  <anchor x="52.0" y="-445" name="bottom"/>
  <outline>
    <contour>
      <point x="330.0" y="257.0" type="curve" smooth="yes"/>
      <point x="401.0" y="499.0" type="line" smooth="yes"/>
      <point x="454.0" y="680.0"/>
      <point x="631.0" y="928.0"/>
      <point x="797.0" y="928.0" type="curve" smooth="yes"/>
      <point x="859.0" y="928.0"/>
      <point x="897.0" y="887.0"/>
      <point x="897.0" y="787.0" type="curve" smooth="yes"/>
      <point x="897.0" y="437.0"/>
      <point x="628.0" y="16.0"/>
      <point x="433.0" y="16.0" type="curve" smooth="yes"/>
      <point x="353.0" y="16.0"/>
      <point x="316.0" y="82.0"/>
      <point x="316.0" y="165.0" type="curve" smooth="yes"/>
      <point x="316.0" y="194.0"/>
      <point x="321.0" y="226.0"/>
    </contour>
    <contour>
      <point x="212.0" y="120.0" type="line"/>
      <point x="240.0" y="40.0"/>
      <point x="305.0" y="-20.0"/>
      <point x="435.0" y="-20.0" type="curve" smooth="yes"/>
      <point x="710.0" y="-20.0"/>
      <point x="1079.0" y="411.0"/>
      <point x="1079.0" y="820.0" type="curve" smooth="yes"/>
      <point x="1079.0" y="971.0"/>
      <point x="1009.0" y="1044.0"/>
      <point x="877.0" y="1044.0" type="curve" smooth="yes"/>
      <point x="750.0" y="1044.0"/>
      <point x="605.0" y="951.0"/>
      <point x="419.0" y="606.0" type="curve"/>
      <point x="433.0" y="606.0" type="line"/>
      <point x="561.0" y="1021.0" type="line"/>
      <point x="522.0" y="1037.0"/>
      <point x="491.0" y="1044.0"/>
      <point x="442.0" y="1044.0" type="curve" smooth="yes"/>
      <point x="303.0" y="1044.0"/>
      <point x="196.0" y="940.0"/>
      <point x="58.0" y="614.0" type="curve"/>
      <point x="69.0" y="609.0" type="line"/>
      <point x="205.0" y="849.0"/>
      <point x="295.0" y="907.0"/>
      <point x="338.0" y="907.0" type="curve" smooth="yes"/>
      <point x="359.0" y="907.0"/>
      <point x="365.0" y="890.0"/>
      <point x="356.0" y="862.0" type="curve" smooth="yes"/>
      <point x="-22.0" y="-388.0" type="line"/>
      <point x="-165.0" y="-418.0" type="line"/>
      <point x="-172.0" y="-445.0" type="line"/>
      <point x="298.0" y="-445.0" type="line"/>
      <point x="305.0" y="-418.0" type="line"/>
      <point x="141.0" y="-388.0" type="line"/>
      <point x="283.0" y="91.0" type="line"/>
    </contour>
  </outline>
</glyph>
<glyph name="q" format="2">
  <advance width="979"/>
  <unicode hex="0071"/>
  <anchor x="654.0" y="1024.0" name="top"/>
  <anchor x="484.0" y="-445" name="bottom"/>
  <outline>
    <contour>
      <point x="406.0" y="-388.0" type="line"/>
      <point x="235.0" y="-418.0" type="line"/>
      <point x="228.0" y="-445.0" type="line"/>
      <point x="697.0" y="-445.0" type="line"/>
      <point x="704.0" y="-418.0" type="line"/>
      <point x="569.0" y="-388.0" type="line"/>
      <point x="993.0" y="1024.0" type="line"/>
      <point x="837.0" y="1024.0" type="line"/>
      <point x="806.0" y="928.0" type="line"/>
      <point x="649.0" y="446.0" type="line"/>
      <point x="472.0" y="193.0"/>
      <point x="352.0" y="111.0"/>
      <point x="275.0" y="111.0" type="curve" smooth="yes"/>
      <point x="219.0" y="111.0"/>
      <point x="178.0" y="141.0"/>
      <point x="178.0" y="226.0" type="curve" smooth="yes"/>
      <point x="178.0" y="472.0"/>
      <point x="444.0" y="975.0"/>
      <point x="686.0" y="975.0" type="curve" smooth="yes"/>
      <point x="752.0" y="975.0"/>
      <point x="802.0" y="945.0"/>
      <point x="840.0" y="843.0" type="curve"/>
      <point x="847.0" y="877.0" type="line"/>
      <point x="800.0" y="985.0"/>
      <point x="726.0" y="1040.0"/>
      <point x="642.0" y="1040.0" type="curve" smooth="yes"/>
      <point x="333.0" y="1040.0"/>
      <point x="1.0" y="497.0"/>
      <point x="1.0" y="169.0" type="curve" smooth="yes"/>
      <point x="1.0" y="45.0"/>
      <point x="78.0" y="-20.0"/>
      <point x="183.0" y="-20.0" type="curve" smooth="yes"/>
      <point x="278.0" y="-20.0"/>
      <point x="410.0" y="48.0"/>
      <point x="667.0" y="441.0" type="curve"/>
      <point x="656.0" y="441.0" type="line"/>
    </contour>
  </outline>
</glyph>
<glyph name="v" format="2">
  <advance width="962"/>
  <unicode hex="0076"/>
  <anchor x="629.0" y="1024.0" name="top"/>
  <anchor x="355.0" y="0" name="bottom"/>
  <outline>
    <contour>
      <point x="920" y="838" type="curve" smooth="yes"/>
      <point x="920" y="985"/>
      <point x="872" y="1043"/>
      <point x="794" y="1043" type="curve" smooth="yes"/>
      <point x="729" y="1043"/>
      <point x="694" y="999"/>
      <point x="694" y="943" type="curve" smooth="yes"/>
      <point x="694" y="822"/>
      <point x="851" y="868"/>
      <point x="851" y="670" type="curve" smooth="yes"/>
      <point x="851" y="396"/>
      <point x="593" y="84"/>
      <point x="391" y="84" type="curve" smooth="yes"/>
      <point x="331" y="84"/>
      <point x="299" y="106"/>
      <point x="299" y="173" type="curve" smooth="yes"/>
      <point x="299" y="211"/>
      <point x="310" y="265"/>
      <point x="332" y="337" type="curve" smooth="yes"/>
      <point x="542" y="1020" type="line"/>
      <point x="504" y="1035"/>
      <point x="476" y="1044"/>
      <point x="428" y="1044" type="curve" smooth="yes"/>
      <point x="289" y="1044"/>
      <point x="182" y="940"/>
      <point x="44" y="614" type="curve"/>
      <point x="55" y="609" type="line"/>
      <point x="191" y="849"/>
      <point x="281" y="907"/>
      <point x="324" y="907" type="curve" smooth="yes"/>
      <point x="347" y="907"/>
      <point x="350" y="887"/>
      <point x="342" y="862" type="curve" smooth="yes"/>
      <point x="170" y="312" type="line" smooth="yes"/>
      <point x="150" y="248"/>
      <point x="140" y="193"/>
      <point x="140" y="148" type="curve" smooth="yes"/>
      <point x="140" y="35"/>
      <point x="202" y="-20"/>
      <point x="324" y="-20" type="curve" smooth="yes"/>
      <point x="558" y="-20"/>
      <point x="920" y="368"/>
    </contour>
  </outline>
</glyph>
<glyph name="w" format="2">
  <advance width="1432"/>
  <unicode hex="0077"/>
  <anchor x="914.0" y="1024.0" name="top"/>
  <anchor x="640.0" y="0" name="bottom"/>
  <outline>
    <contour>
      <point x="862" y="1024" type="line"/>
      <point x="773" y="625" type="line" smooth="yes"/>
      <point x="695" y="275"/>
      <point x="500" y="84"/>
      <point x="373" y="84" type="curve" smooth="yes"/>
      <point x="322" y="84"/>
      <point x="294" y="101"/>
      <point x="294" y="159" type="curve" smooth="yes"/>
      <point x="294" y="196"/>
      <point x="305" y="250"/>
      <point x="329" y="327" type="curve" smooth="yes"/>
      <point x="543" y="1020" type="line"/>
      <point x="505" y="1035"/>
      <point x="477" y="1044"/>
      <point x="429" y="1044" type="curve" smooth="yes"/>
      <point x="290" y="1044"/>
      <point x="183" y="940"/>
      <point x="45" y="614" type="curve"/>
      <point x="56" y="609" type="line"/>
      <point x="192" y="849"/>
      <point x="282" y="907"/>
      <point x="325" y="907" type="curve" smooth="yes"/>
      <point x="348" y="907"/>
      <point x="351" y="887"/>
      <point x="343" y="862" type="curve" smooth="yes"/>
      <point x="169" y="309" type="line" smooth="yes"/>
      <point x="147" y="240"/>
      <point x="137" y="183"/>
      <point x="137" y="138" type="curve" smooth="yes"/>
      <point x="137" y="27"/>
      <point x="197" y="-20"/>
      <point x="299" y="-20" type="curve" smooth="yes"/>
      <point x="447" y="-20"/>
      <point x="636" y="143"/>
      <point x="749" y="473" type="curve"/>
      <point x="745" y="473" type="line"/>
      <point x="681" y="241" type="line" smooth="yes"/>
      <point x="669" y="196"/>
      <point x="662" y="158"/>
      <point x="662" y="125" type="curve" smooth="yes"/>
      <point x="662" y="28"/>
      <point x="717" y="-20"/>
      <point x="835" y="-20" type="curve" smooth="yes"/>
      <point x="1069" y="-20"/>
      <point x="1388" y="368"/>
      <point x="1388" y="838" type="curve" smooth="yes"/>
      <point x="1388" y="985"/>
      <point x="1340" y="1043"/>
      <point x="1262" y="1043" type="curve" smooth="yes"/>
      <point x="1197" y="1043"/>
      <point x="1162" y="999"/>
      <point x="1162" y="943" type="curve" smooth="yes"/>
      <point x="1162" y="822"/>
      <point x="1319" y="868"/>
      <point x="1319" y="670" type="curve" smooth="yes"/>
      <point x="1319" y="396"/>
      <point x="1105" y="84"/>
      <point x="903" y="84" type="curve" smooth="yes"/>
      <point x="842" y="84"/>
      <point x="821" y="108"/>
      <point x="821" y="158" type="curve" smooth="yes"/>
      <point x="821" y="192"/>
      <point x="830" y="238"/>
      <point x="844" y="296" type="curve" smooth="yes"/>
      <point x="1014" y="1024" type="line"/>
    </contour>
  </outline>
</glyph>
<glyph name="y" format="2">
  <advance width="1014"/>
  <unicode hex="0079"/>
  <anchor x="625.0" y="1024.0" name="top"/>
  <anchor x="691.0" y="-141" name="bottom"/>
  <outline>
    <contour>
      <point x="65.0" y="599.0" type="line"/>
      <point x="158" y="840.0"/>
      <point x="210.0" y="892.0"/>
      <point x="260.0" y="892.0" type="curve" smooth="yes"/>
      <point x="289" y="892"/>
      <point x="318.0" y="862.0"/>
      <point x="346.0" y="750.0" type="curve" smooth="yes"/>
      <point x="374.0" y="638.0"/>
      <point x="406.0" y="338.0"/>
      <point x="420.0" y="-228.0" type="curve"/>
      <point x="571.0" y="-49.0" type="line"/>
      <point x="574" y="416.0"/>
      <point x="530" y="764"/>
      <point x="490" y="885" type="curve" smooth="yes"/>
      <point x="450" y="1006"/>
      <point x="407.0" y="1044.0"/>
      <point x="352.0" y="1044.0" type="curve" smooth="yes"/>
      <point x="243" y="1044"/>
      <point x="138.0" y="942.0"/>
      <point x="51.0" y="599.0" type="curve"/>
    </contour>
    <contour>
      <point x="490" y="-114" type="line"/>
      <point x="339" y="-303"/>
      <point x="168" y="-404"/>
      <point x="48" y="-404" type="curve" smooth="yes"/>
      <point x="6.0" y="-404"/>
      <point x="-8" y="-385"/>
      <point x="11" y="-310" type="curve" smooth="yes"/>
      <point x="30" y="-235"/>
      <point x="15.0" y="-202.0"/>
      <point x="-53" y="-202" type="curve" smooth="yes"/>
      <point x="-122" y="-202"/>
      <point x="-166" y="-260"/>
      <point x="-166" y="-332" type="curve" smooth="yes"/>
      <point x="-166" y="-410"/>
      <point x="-119" y="-465"/>
      <point x="-6" y="-465" type="curve" smooth="yes"/>
      <point x="178" y="-465"/>
      <point x="383" y="-336"/>
      <point x="605" y="-29" type="curve" smooth="yes"/>
      <point x="827" y="278"/>
      <point x="1023" y="830"/>
      <point x="1023" y="989" type="curve" smooth="yes"/>
      <point x="1023" y="1018"/>
      <point x="1006" y="1034"/>
      <point x="962" y="1034" type="curve" smooth="yes"/>
      <point x="937" y="1034"/>
      <point x="916" y="1033"/>
      <point x="885" y="1024" type="curve"/>
      <point x="885" y="600"/>
      <point x="740" y="209"/>
      <point x="512" y="-85" type="curve"/>
    </contour>
  </outline>
</glyph>
<glyph name="braceleft" format="2">
  <advance width="567"/>
  <unicode hex="007B"/>
  <outline>
    <contour>
      <point x="72.0" y="600.0" type="line"/>
      <point x="143.0" y="595.0" type="line" smooth="yes"/>
      <point x="211.0" y="589.0"/>
      <point x="238.0" y="559.0"/>
      <point x="238.0" y="512.0" type="curve" smooth="yes"/>
      <point x="238.0" y="342.0"/>
      <point x="16.0" y="141.0"/>
      <point x="16.0" y="-41.0" type="curve" smooth="yes"/>
      <point x="16.0" y="-153.0"/>
      <point x="73.0" y="-231.0"/>
      <point x="202.0" y="-245.0" type="curve" smooth="yes"/>
      <point x="278.0" y="-253.0" type="line"/>
      <point x="292.0" y="-225.0" type="line"/>
      <point x="238.0" y="-216.0" type="line" smooth="yes"/>
      <point x="166.0" y="-204.0"/>
      <point x="136.0" y="-164.0"/>
      <point x="136.0" y="-87.0" type="curve" smooth="yes"/>
      <point x="136.0" y="78.0"/>
      <point x="330.0" y="288.0"/>
      <point x="330.0" y="470.0" type="curve" smooth="yes"/>
      <point x="330.0" y="543.0"/>
      <point x="286.0" y="597.0"/>
      <point x="189.0" y="614.0" type="curve"/>
      <point x="183.0" y="602.0" type="line"/>
      <point x="330.0" y="623.0"/>
      <point x="428.0" y="715.0"/>
      <point x="459.0" y="858.0" type="curve" smooth="yes"/>
      <point x="490.0" y="1002.0"/>
      <point x="504.0" y="1134.0"/>
      <point x="536.0" y="1253.0" type="curve" smooth="yes"/>
      <point x="568.0" y="1372.0"/>
      <point x="635.0" y="1434.0"/>
      <point x="746.0" y="1449.0" type="curve" smooth="yes"/>
      <point x="806.0" y="1457.0" type="line"/>
      <point x="809.0" y="1484.0" type="line"/>
      <point x="728.0" y="1477.0" type="line" smooth="yes"/>
      <point x="553.0" y="1462.0"/>
      <point x="431.0" y="1351.0"/>
      <point x="387.0" y="1212.0" type="curve" smooth="yes"/>
      <point x="343.0" y="1073.0"/>
      <point x="353.0" y="942.0"/>
      <point x="332.0" y="809.0" type="curve" smooth="yes"/>
      <point x="311.0" y="676.0"/>
      <point x="255.0" y="645.0"/>
      <point x="156.0" y="637.0" type="curve" smooth="yes"/>
      <point x="82.0" y="632.0" type="line"/>
    </contour>
  </outline>
</glyph>
<glyph name="bar" format="2">
  <advance width="471"/>
  <unicode hex="007C"/>
  <outline>
    <contour>
      <point x="-94.0" y="-465.0" type="line"/>
      <point x="-10.0" y="-465.0" type="line"/>
      <point x="578.0" y="1535.0" type="line"/>
      <point x="494.0" y="1535.0" type="line"/>
    </contour>
  </outline>
</glyph>
<glyph name="asciitilde" format="2">
  <advance width="1150"/>
  <unicode hex="007E"/>
  <outline>
    <contour>
      <point x="127.0" y="396.0" type="curve"/>
      <point x="195.0" y="396.0" type="line"/>
      <point x="243.0" y="512.0"/>
      <point x="300.0" y="568.0"/>
      <point x="405.0" y="568.0" type="curve" smooth="yes"/>
      <point x="550.0" y="568.0"/>
      <point x="566.0" y="388.0"/>
      <point x="733.0" y="388.0" type="curve" smooth="yes"/>
      <point x="846.0" y="388.0"/>
      <point x="958.0" y="440.0"/>
      <point x="1023.0" y="628.0" type="curve"/>
      <point x="955.0" y="628.0" type="line"/>
      <point x="907.0" y="512.0"/>
      <point x="850.0" y="456.0"/>
      <point x="745.0" y="456.0" type="curve" smooth="yes"/>
      <point x="600.0" y="456.0"/>
      <point x="584.0" y="636.0"/>
      <point x="417.0" y="636.0" type="curve" smooth="yes"/>
      <point x="304.0" y="636.0"/>
      <point x="192.0" y="584.0"/>
    </contour>
  </outline>
</glyph>
<glyph name="section" format="2">
  <advance width="1048"/>
  <unicode hex="00A7"/>
  <outline>
    <contour>
      <point x="483.0" y="887.0" type="curve"/>
      <point x="467.0" y="907.0" type="line"/>
      <point x="232.0" y="846.0"/>
      <point x="110.0" y="738.0"/>
      <point x="110.0" y="560.0" type="curve" smooth="yes"/>
      <point x="110.0" y="236.0"/>
      <point x="614.0" y="299.0"/>
      <point x="614.0" y="29.0" type="curve" smooth="yes"/>
      <point x="614.0" y="-72.0"/>
      <point x="524.0" y="-173.0"/>
      <point x="346.0" y="-173.0" type="curve" smooth="yes"/>
      <point x="140.0" y="-173.0"/>
      <point x="140.0" y="24.0"/>
      <point x="70.0" y="24.0" type="curve" smooth="yes"/>
      <point x="6.0" y="24.0"/>
      <point x="-32.0" y="-18.0"/>
      <point x="-32.0" y="-69.0" type="curve" smooth="yes"/>
      <point x="-32.0" y="-140.0"/>
      <point x="32.0" y="-218.0"/>
      <point x="265.0" y="-218.0" type="curve" smooth="yes"/>
      <point x="575.0" y="-218.0"/>
      <point x="755.0" y="-55.0"/>
      <point x="755.0" y="131.0" type="curve" smooth="yes"/>
      <point x="755.0" y="465.0"/>
      <point x="240.0" y="409.0"/>
      <point x="240.0" y="656.0" type="curve" smooth="yes"/>
      <point x="240.0" y="777.0"/>
      <point x="343.0" y="858.0"/>
    </contour>
    <contour>
      <point x="871.0" y="576.0" type="curve" smooth="yes"/>
      <point x="871.0" y="455.0"/>
      <point x="768.0" y="374.0"/>
      <point x="628.0" y="345.0" type="curve"/>
      <point x="644.0" y="325.0" type="line"/>
      <point x="879.0" y="386.0"/>
      <point x="1001.0" y="494.0"/>
      <point x="1001.0" y="672.0" type="curve" smooth="yes"/>
      <point x="1001.0" y="996.0"/>
      <point x="497.0" y="933.0"/>
      <point x="497.0" y="1203.0" type="curve" smooth="yes"/>
      <point x="497.0" y="1304.0"/>
      <point x="587.0" y="1405.0"/>
      <point x="765.0" y="1405.0" type="curve" smooth="yes"/>
      <point x="971.0" y="1405.0"/>
      <point x="971.0" y="1208.0"/>
      <point x="1041.0" y="1208.0" type="curve" smooth="yes"/>
      <point x="1105.0" y="1208.0"/>
      <point x="1143.0" y="1250.0"/>
      <point x="1143.0" y="1301.0" type="curve" smooth="yes"/>
      <point x="1143.0" y="1372.0"/>
      <point x="1079.0" y="1450.0"/>
      <point x="846.0" y="1450.0" type="curve" smooth="yes"/>
      <point x="536.0" y="1450.0"/>
      <point x="356.0" y="1287.0"/>
      <point x="356.0" y="1101.0" type="curve" smooth="yes"/>
      <point x="356.0" y="767.0"/>
      <point x="871.0" y="823.0"/>
    </contour>
  </outline>
</glyph>
<glyph name="copyright" format="2">
  <advance width="1755"/>
  <unicode hex="00A9"/>
  <outline>
    <contour>
      <point x="915.0" y="305.0" type="curve" smooth="yes"/>
      <point x="771.0" y="305.0"/>
      <point x="680.0" y="407.0"/>
      <point x="680.0" y="588.0" type="curve" smooth="yes"/>
      <point x="680.0" y="868.0"/>
      <point x="841.0" y="1127.0"/>
      <point x="1092.0" y="1127.0" type="curve" smooth="yes"/>
      <point x="1166.0" y="1127.0"/>
      <point x="1219.0" y="1104.0"/>
      <point x="1269.0" y="1052.0" type="curve"/>
      <point x="1231.0" y="1107.0" type="line"/>
      <point x="1289.0" y="858.0" type="line"/>
      <point x="1309.0" y="858.0" type="line"/>
      <point x="1356.0" y="1193.0" type="line"/>
      <point x="1347.0" y="1193.0" type="line"/>
      <point x="1261.0" y="1126.0" type="line"/>
      <point x="1315.0" y="1132.0" type="line"/>
      <point x="1250.0" y="1157.0"/>
      <point x="1166.0" y="1170.0"/>
      <point x="1092.0" y="1170.0" type="curve" smooth="yes"/>
      <point x="773.0" y="1170.0"/>
      <point x="503.0" y="924.0"/>
      <point x="503.0" y="635.0" type="curve" smooth="yes"/>
      <point x="503.0" y="425.0"/>
      <point x="653.0" y="268.0"/>
      <point x="897.0" y="268.0" type="curve" smooth="yes"/>
      <point x="993.0" y="268.0"/>
      <point x="1062.0" y="279.0"/>
      <point x="1142.0" y="308.0" type="curve"/>
      <point x="1258.0" y="529.0" type="line"/>
      <point x="1238.0" y="529.0" type="line"/>
      <point x="1031.0" y="315.0" type="line"/>
      <point x="1102.0" y="354.0" type="line"/>
      <point x="1041.0" y="322.0"/>
      <point x="976.0" y="305.0"/>
    </contour>
    <contour>
      <point x="835.0" y="29.0" type="curve" smooth="yes"/>
      <point x="465.0" y="29.0"/>
      <point x="240.0" y="258.0"/>
      <point x="240.0" y="593.0" type="curve" smooth="yes"/>
      <point x="240.0" y="1034.0"/>
      <point x="592.0" y="1401.0"/>
      <point x="1043.0" y="1401.0" type="curve" smooth="yes"/>
      <point x="1413.0" y="1401.0"/>
      <point x="1638.0" y="1172.0"/>
      <point x="1638.0" y="837.0" type="curve" smooth="yes"/>
      <point x="1638.0" y="396.0"/>
      <point x="1286.0" y="29.0"/>
    </contour>
    <contour>
      <point x="1045.0" y="1450.0" type="curve" smooth="yes"/>
      <point x="551.0" y="1450.0"/>
      <point x="177.0" y="1057.0"/>
      <point x="177.0" y="587.0" type="curve" smooth="yes"/>
      <point x="177.0" y="220.0"/>
      <point x="434.0" y="-20.0"/>
      <point x="833.0" y="-20.0" type="curve" smooth="yes"/>
      <point x="1327.0" y="-20.0"/>
      <point x="1701.0" y="373.0"/>
      <point x="1701.0" y="843.0" type="curve" smooth="yes"/>
      <point x="1701.0" y="1210.0"/>
      <point x="1444.0" y="1450.0"/>
    </contour>
  </outline>
</glyph>
<glyph name="logicalnot" format="2">
  <advance width="1150"/>
  <unicode hex="00AC"/>
  <outline>
    <contour>
      <point x="229.0" y="742.0" type="line"/>
      <point x="209.0" y="675.0" type="line"/>
      <point x="964.0" y="675.0" type="line"/>
      <point x="839.0" y="268.0" type="line"/>
      <point x="906.0" y="268.0" type="line"/>
      <point x="1051.0" y="742.0" type="line"/>
    </contour>
  </outline>
</glyph>
<glyph name="registered" format="2">
  <advance width="1095"/>
  <unicode hex="00AE"/>
  <outline>
    <contour>
      <point x="877.0" y="838.0" type="line"/>
      <point x="848.0" y="838.0"/>
      <point x="839.0" y="843.0"/>
      <point x="837.0" y="881.0" type="curve" smooth="yes"/>
      <point x="833.0" y="956.0" type="line" smooth="yes"/>
      <point x="831.0" y="1009.0"/>
      <point x="807.0" y="1038.0"/>
      <point x="755.0" y="1040.0" type="curve"/>
      <point x="755.0" y="1039.0" type="line"/>
      <point x="853.0" y="1044.0"/>
      <point x="910.0" y="1100.0"/>
      <point x="910.0" y="1166.0" type="curve" smooth="yes"/>
      <point x="910.0" y="1212.0"/>
      <point x="878.0" y="1244.0"/>
      <point x="786.0" y="1244.0" type="curve" smooth="yes"/>
      <point x="674.0" y="1244.0" type="line"/>
      <point x="665.0" y="1214.0" type="line"/>
      <point x="747.0" y="1214.0" type="line" smooth="yes"/>
      <point x="798.0" y="1214.0"/>
      <point x="822.0" y="1198.0"/>
      <point x="822.0" y="1160.0" type="curve" smooth="yes"/>
      <point x="822.0" y="1095.0"/>
      <point x="778.0" y="1052.0"/>
      <point x="705.0" y="1052.0" type="curve" smooth="yes"/>
      <point x="616.0" y="1052.0" type="line"/>
      <point x="606.0" y="1022.0" type="line"/>
      <point x="704.0" y="1022.0" type="line" smooth="yes"/>
      <point x="738.0" y="1022.0"/>
      <point x="750.0" y="1012.0"/>
      <point x="751.0" y="973.0" type="curve" smooth="yes"/>
      <point x="753.0" y="891.0" type="line" smooth="yes"/>
      <point x="755.0" y="819.0"/>
      <point x="764.0" y="809.0"/>
      <point x="871.0" y="817.0" type="curve"/>
    </contour>
    <contour>
      <point x="712.0" y="1244.0" type="line"/>
      <point x="563.0" y="1244.0" type="line"/>
      <point x="559.0" y="1229.0" type="line"/>
      <point x="615.0" y="1215.0" type="line"/>
      <point x="503.0" y="848.0" type="line"/>
      <point x="438.0" y="833.0" type="line"/>
      <point x="433.0" y="818.0" type="line"/>
      <point x="643.0" y="818.0" type="line"/>
      <point x="648.0" y="833.0" type="line"/>
      <point x="591.0" y="848.0" type="line"/>
    </contour>
    <contour>
      <point x="629.0" y="643.0" type="curve" smooth="yes"/>
      <point x="418.0" y="643.0"/>
      <point x="316.0" y="763.0"/>
      <point x="316.0" y="943.0" type="curve" smooth="yes"/>
      <point x="316.0" y="1204.0"/>
      <point x="521.0" y="1403.0"/>
      <point x="769.0" y="1403.0" type="curve" smooth="yes"/>
      <point x="980.0" y="1403.0"/>
      <point x="1082.0" y="1283.0"/>
      <point x="1082.0" y="1103.0" type="curve" smooth="yes"/>
      <point x="1082.0" y="842.0"/>
      <point x="877.0" y="643.0"/>
    </contour>
    <contour>
      <point x="772.0" y="1450.0" type="curve" smooth="yes"/>
      <point x="488.0" y="1450.0"/>
      <point x="263.0" y="1226.0"/>
      <point x="263.0" y="938.0" type="curve" smooth="yes"/>
      <point x="263.0" y="735.0"/>
      <point x="386.0" y="596.0"/>
      <point x="626.0" y="596.0" type="curve" smooth="yes"/>
      <point x="910.0" y="596.0"/>
      <point x="1135.0" y="820.0"/>
      <point x="1135.0" y="1108.0" type="curve" smooth="yes"/>
      <point x="1135.0" y="1311.0"/>
      <point x="1012.0" y="1450.0"/>
    </contour>
  </outline>
</glyph>
<glyph name="degree" format="2">
  <advance width="752"/>
  <unicode hex="00B0"/>
  <outline>
    <contour>
      <point x="599.0" y="1444.0" type="curve" smooth="yes"/>
      <point x="401.0" y="1444.0"/>
      <point x="262.0" y="1281.0"/>
      <point x="262.0" y="1097.0" type="curve" smooth="yes"/>
      <point x="262.0" y="954.0"/>
      <point x="357.0" y="856.0"/>
      <point x="529.0" y="856.0" type="curve" smooth="yes"/>
      <point x="727.0" y="856.0"/>
      <point x="866.0" y="1019.0"/>
      <point x="866.0" y="1203.0" type="curve" smooth="yes"/>
      <point x="866.0" y="1346.0"/>
      <point x="771.0" y="1444.0"/>
    </contour>
    <contour>
      <point x="533.0" y="915.0" type="curve" smooth="yes"/>
      <point x="392.0" y="915.0"/>
      <point x="327.0" y="995.0"/>
      <point x="327.0" y="1101.0" type="curve" smooth="yes"/>
      <point x="327.0" y="1258.0"/>
      <point x="427.0" y="1385.0"/>
      <point x="595.0" y="1385.0" type="curve" smooth="yes"/>
      <point x="736.0" y="1385.0"/>
      <point x="801.0" y="1305.0"/>
      <point x="801.0" y="1199.0" type="curve" smooth="yes"/>
      <point x="801.0" y="1042.0"/>
      <point x="701.0" y="915.0"/>
    </contour>
  </outline>
</glyph>
<glyph name="uni00B2" format="2">
  <advance width="692"/>
  <unicode hex="00B2"/>
  <outline>
    <contour>
      <point x="532.0" y="722.0" type="line"/>
      <point x="668.0" y="789.0" type="line"/>
      <point x="294.0" y="789.0" type="line"/>
      <point x="284.0" y="766.0" type="line"/>
      <point x="479.0" y="919.0" type="line" smooth="yes"/>
      <point x="737.0" y="1121.0"/>
      <point x="765.0" y="1184.0"/>
      <point x="765.0" y="1272.0" type="curve" smooth="yes"/>
      <point x="765.0" y="1370.0"/>
      <point x="698.0" y="1444.0"/>
      <point x="571.0" y="1444.0" type="curve" smooth="yes"/>
      <point x="414.0" y="1444.0"/>
      <point x="303.0" y="1342.0"/>
      <point x="249.0" y="1165.0" type="curve"/>
      <point x="276.0" y="1160.0" type="line"/>
      <point x="319.0" y="1295.0"/>
      <point x="398.0" y="1340.0"/>
      <point x="491.0" y="1340.0" type="curve" smooth="yes"/>
      <point x="573.0" y="1340.0"/>
      <point x="621.0" y="1296.0"/>
      <point x="621.0" y="1219.0" type="curve" smooth="yes"/>
      <point x="621.0" y="1141.526720349721"/>
      <point x="559.5758715702799" y="1048.5031322275445"/>
      <point x="370.0" y="879.0" type="curve" smooth="yes"/>
      <point x="140.0" y="674.0" type="line"/>
      <point x="136.0" y="662.0" type="line"/>
      <point x="566.0" y="662.0" type="line"/>
      <point x="607.0" y="632.0" type="line"/>
      <point x="617.0" y="632.0" type="line"/>
      <point x="770.0" y="915.0" type="line"/>
      <point x="758.0" y="915.0" type="line"/>
    </contour>
  </outline>
</glyph>
<glyph name="uni00B5" format="2">
  <advance width="1104"/>
  <unicode hex="00B5"/>
  <outline>
    <contour>
      <point x="665.0" y="435.0" type="line" smooth="yes"/>
      <point x="626.0" y="319.0"/>
      <point x="479.0" y="121.0"/>
      <point x="362.0" y="121.0" type="curve" smooth="yes"/>
      <point x="301.0" y="121.0"/>
      <point x="267.0" y="138.0"/>
      <point x="263.0" y="186.0" type="curve" smooth="yes"/>
      <point x="262.0" y="209.0"/>
      <point x="268.0" y="241.0"/>
      <point x="281.0" y="281.0" type="curve" smooth="yes"/>
      <point x="519.0" y="1024.0" type="line"/>
      <point x="356.0" y="1024.0" type="line"/>
      <point x="-106.0" y="-456.0" type="line"/>
      <point x="-96.0" y="-456.0" type="line"/>
      <point x="91.0" y="-440.0" type="line"/>
      <point x="130.0" y="131.0" type="line"/>
      <point x="123.0" y="131.0" type="line"/>
      <point x="130.0" y="28.0"/>
      <point x="167.0" y="-20.0"/>
      <point x="267.0" y="-20.0" type="curve" smooth="yes"/>
      <point x="394.0" y="-20.0"/>
      <point x="467.0" y="70.0"/>
      <point x="653.0" y="364.0" type="curve"/>
      <point x="644.0" y="364.0" type="line"/>
      <point x="550.0" y="63.0" type="line" smooth="yes"/>
      <point x="534.0" y="11.0"/>
      <point x="560.0" y="-20.0"/>
      <point x="626.0" y="-20.0" type="curve" smooth="yes"/>
      <point x="722.0" y="-20.0"/>
      <point x="852.0" y="65.0"/>
      <point x="1015.0" y="323.0" type="curve"/>
      <point x="1006.0" y="330.0" type="line"/>
      <point x="855.0" y="152.0"/>
      <point x="744.0" y="100.0"/>
      <point x="691.0" y="118.0" type="curve"/>
      <point x="709.0" y="87.0" type="line"/>
      <point x="1026.0" y="1024.0" type="line"/>
      <point x="863.0" y="1024.0" type="line"/>
    </contour>
  </outline>
</glyph>
<glyph name="ordmasculine" format="2">
  <advance width="823"/>
  <unicode hex="00BA"/>
  <outline>
    <contour>
      <point x="143.0" y="570.0" type="line"/>
      <point x="713.0" y="570.0" type="line"/>
      <point x="731.0" y="629.0" type="line"/>
      <point x="162.0" y="629.0" type="line"/>
    </contour>
    <contour>
      <point x="705.0" y="1450.0" type="curve" smooth="yes"/>
      <point x="519.0" y="1450.0"/>
      <point x="309.0" y="1239.0"/>
      <point x="309.0" y="982.0" type="curve" smooth="yes"/>
      <point x="309.0" y="854.0"/>
      <point x="374.0" y="790.0"/>
      <point x="495.0" y="790.0" type="curve" smooth="yes"/>
      <point x="681.0" y="790.0"/>
      <point x="891.0" y="1001.0"/>
      <point x="891.0" y="1258.0" type="curve" smooth="yes"/>
      <point x="891.0" y="1386.0"/>
      <point x="826.0" y="1450.0"/>
    </contour>
    <contour>
      <point x="499.0" y="822.0" type="curve" smooth="yes"/>
      <point x="461.0" y="822.0"/>
      <point x="444.0" y="855.0"/>
      <point x="444.0" y="923.0" type="curve" smooth="yes"/>
      <point x="444.0" y="1146.0"/>
      <point x="580.0" y="1418.0"/>
      <point x="701.0" y="1418.0" type="curve" smooth="yes"/>
      <point x="739.0" y="1418.0"/>
      <point x="756.0" y="1385.0"/>
      <point x="756.0" y="1317.0" type="curve" smooth="yes"/>
      <point x="756.0" y="1094.0"/>
      <point x="620.0" y="822.0"/>
    </contour>
  </outline>
</glyph>
<glyph name="questiondown" format="2">
  <advance width="954"/>
  <unicode hex="00BF"/>
  <outline>
    <contour>
      <point x="649.0" y="764.0" type="curve" smooth="yes"/>
      <point x="741.0" y="764.0"/>
      <point x="812.0" y="836.0"/>
      <point x="812.0" y="928.0" type="curve" smooth="yes"/>
      <point x="812.0" y="996.0"/>
      <point x="765.0" y="1042.0"/>
      <point x="693.0" y="1042.0" type="curve" smooth="yes"/>
      <point x="601.0" y="1042.0"/>
      <point x="530.0" y="970.0"/>
      <point x="530.0" y="879.0" type="curve" smooth="yes"/>
      <point x="530.0" y="810.0"/>
      <point x="577.0" y="764.0"/>
    </contour>
    <contour>
      <point x="389.0" y="-427.0" type="curve" smooth="yes"/>
      <point x="560.0" y="-427.0"/>
      <point x="653.0" y="-373.0"/>
      <point x="653.0" y="-301.0" type="curve" smooth="yes"/>
      <point x="653.0" y="-260.0"/>
      <point x="625.0" y="-232.0"/>
      <point x="591.0" y="-232.0" type="curve" smooth="yes"/>
      <point x="573.0" y="-232.0"/>
      <point x="456.0" y="-343.0"/>
      <point x="281.0" y="-343.0" type="curve" smooth="yes"/>
      <point x="121.0" y="-343.0"/>
      <point x="30.0" y="-246.0"/>
      <point x="30.0" y="-77.0" type="curve" smooth="yes"/>
      <point x="30.0" y="145.0"/>
      <point x="177.0" y="239.0"/>
      <point x="519.0" y="180.0" type="curve"/>
      <point x="609.0" y="560.0" type="line"/>
      <point x="577.0" y="560.0" type="line"/>
      <point x="433.0" y="219.0" type="line"/>
      <point x="514.0" y="336.0" type="line"/>
      <point x="137.0" y="396.0"/>
      <point x="-55.0" y="264.0"/>
      <point x="-55.0" y="-9.0" type="curve" smooth="yes"/>
      <point x="-55.0" y="-216.0"/>
      <point x="114.0" y="-427.0"/>
    </contour>
  </outline>
</glyph>
<glyph name="oslash" format="2">
  <advance width="957"/>
  <unicode hex="00F8"/>
  <anchor x="633.0" y="1024.0" name="top"/>
  <anchor x="299.0" y="0" name="bottom"/>
  <outline>
    <contour>
      <point x="646.0" y="1044.0" type="curve" smooth="yes"/>
      <point x="336.0" y="1044.0"/>
      <point x="57.0" y="643.0"/>
      <point x="57.0" y="274.0" type="curve" smooth="yes"/>
      <point x="57.0" y="87.0"/>
      <point x="142.0" y="-20.0"/>
      <point x="307.0" y="-20.0" type="curve" smooth="yes"/>
      <point x="617.0" y="-20.0"/>
      <point x="896.0" y="381.0"/>
      <point x="896.0" y="750.0" type="curve" smooth="yes"/>
      <point x="896.0" y="937.0"/>
      <point x="811.0" y="1044.0"/>
    </contour>
    <contour>
      <point x="310.0" y="14.0" type="curve" smooth="yes"/>
      <point x="242.0" y="14.0"/>
      <point x="214.0" y="69.0"/>
      <point x="214.0" y="184.0" type="curve" smooth="yes"/>
      <point x="214.0" y="556.0"/>
      <point x="442.0" y="1010.0"/>
      <point x="643.0" y="1010.0" type="curve" smooth="yes"/>
      <point x="711.0" y="1010.0"/>
      <point x="739.0" y="955.0"/>
      <point x="739.0" y="840.0" type="curve" smooth="yes"/>
      <point x="739.0" y="468.0"/>
      <point x="511.0" y="14.0"/>
    </contour>
    <contour>
      <point x="947.0" y="1024.0" type="line"/>
      <point x="827.0" y="904.0" type="line"/>
      <point x="784.0" y="879.0" type="line"/>
      <point x="154.0" y="196.0" type="line"/>
      <point x="108.0" y="174.0" type="line"/>
      <point x="-64.0" y="0.0" type="line"/>
      <point x="25.0" y="0.0" type="line"/>
      <point x="145.0" y="120.0" type="line"/>
      <point x="188.0" y="145.0" type="line"/>
      <point x="818.0" y="828.0" type="line"/>
      <point x="864.0" y="850.0" type="line"/>
      <point x="1036.0" y="1024.0" type="line"/>
    </contour>
  </outline>
</glyph>
<glyph name="Aogonek" format="2">
  <advance width="1401"/>
  <unicode hex="0104"/>
  <outline>
    <contour>
      <point x="380.0" y="557.0" type="line"/>
      <point x="1052.0" y="557.0" type="line"/>
      <point x="1070.0" y="613.0" type="line"/>
      <point x="399.0" y="613.0" type="line"/>
    </contour>
    <contour>
      <point x="1153.0" y="58.0" type="line"/>
      <point x="978.0" y="1450.0" type="line"/>
      <point x="942.0" y="1450.0" type="line"/>
      <point x="13.0" y="66.0" type="line"/>
      <point x="-158.0" y="20.0" type="line"/>
      <point x="-164.0" y="0.0" type="line"/>
      <point x="228.0" y="0.0" type="line"/>
      <point x="234.0" y="20.0" type="line"/>
      <point x="78.0" y="63.0" type="line"/>
      <point x="848.0" y="1220.0" type="line"/>
      <point x="824.0" y="1220.0" type="line"/>
      <point x="962.0" y="56.0" type="line"/>
      <point x="804.0" y="20.0" type="line"/>
      <point x="798.0" y="0.0" type="line"/>
      <point x="1292.0" y="0.0" type="line"/>
      <point x="1298.0" y="20.0" type="line"/>
    </contour>
    <contour>
      <point x="926.0" y="-303.0" type="curve" smooth="yes"/>
      <point x="926.0" y="-258.0"/>
      <point x="938.0" y="-197.0"/>
      <point x="1026.0" y="-56.0" type="curve" smooth="yes"/>
      <point x="1105.0" y="71.0" type="line"/>
      <point x="1084.0" y="71.0" type="line"/>
      <point x="959.0" y="-93.0" type="line" smooth="yes"/>
      <point x="849.0" y="-237.0"/>
      <point x="808.0" y="-287.0"/>
      <point x="808.0" y="-365.0" type="curve" smooth="yes"/>
      <point x="808.0" y="-424.0"/>
      <point x="848.0" y="-465.0"/>
      <point x="935.0" y="-465.0" type="curve" smooth="yes"/>
      <point x="1003.0" y="-465.0"/>
      <point x="1056.0" y="-429.0"/>
      <point x="1129.0" y="-328.0" type="curve"/>
      <point x="1121.0" y="-319.0" type="line"/>
      <point x="1082.0" y="-355.0"/>
      <point x="1048.0" y="-370.0"/>
      <point x="1008.0" y="-370.0" type="curve" smooth="yes"/>
      <point x="960.0" y="-370.0"/>
      <point x="926.0" y="-349.0"/>
    </contour>
  </outline>
</glyph>
<glyph name="Dcroat" format="2">
  <advance width="1499"/>
  <unicode hex="0110"/>
  <guideline x="-76.0" y="0" angle="4.840595413067271" identifier="Jzxl3c4eRG"/>
  <outline>
    <contour>
      <point x="143.0" y="715.0" type="line"/>
      <point x="820.0" y="715.0" type="line"/>
      <point x="839.0" y="779.0" type="line"/>
      <point x="162.0" y="779.0" type="line"/>
    </contour>
    <contour>
      <point x="529.0" y="56.0" type="curve" smooth="yes"/>
      <point x="188.0" y="56.0" type="line"/>
      <point x="172.0" y="0.0" type="line"/>
      <point x="505.0" y="0.0" type="line" smooth="yes"/>
      <point x="1129.0" y="0.0"/>
      <point x="1482.0" y="422.0"/>
      <point x="1482.0" y="895.0" type="curve" smooth="yes"/>
      <point x="1482.0" y="1245.0"/>
      <point x="1213.0" y="1430.0"/>
      <point x="838.0" y="1430.0" type="curve" smooth="yes"/>
      <point x="610.0" y="1430.0" type="line"/>
      <point x="594.0" y="1374.0" type="line"/>
      <point x="823.0" y="1374.0" type="line" smooth="yes"/>
      <point x="1126.0" y="1374.0"/>
      <point x="1283.0" y="1212.0"/>
      <point x="1283.0" y="941.0" type="curve" smooth="yes"/>
      <point x="1283.0" y="393.0"/>
      <point x="941.0" y="56.0"/>
    </contour>
    <contour>
      <point x="507.0" y="1370.0" type="line"/>
      <point x="108.0" y="60.0" type="line"/>
      <point x="-70.0" y="20.0" type="line"/>
      <point x="-76.0" y="0.0" type="line"/>
      <point x="285.0" y="0.0" type="line"/>
      <point x="720.0" y="1430.0" type="line"/>
      <point x="350.0" y="1430.0" type="line"/>
      <point x="344.0" y="1410.0" type="line"/>
    </contour>
  </outline>
</glyph>
<glyph name="eogonek" format="2">
  <advance width="808"/>
  <unicode hex="0119"/>
  <outline>
    <contour>
      <point x="576.0" y="145.0" type="line" smooth="yes"/>
      <point x="622.0" y="204.0"/>
      <point x="666.0" y="290.0"/>
      <point x="708.0" y="395.0" type="curve"/>
      <point x="697.0" y="397.0" type="line"/>
      <point x="578.0" y="177.0"/>
      <point x="464.0" y="109.0"/>
      <point x="353.0" y="109.0" type="curve" smooth="yes"/>
      <point x="256.0" y="109.0"/>
      <point x="204.0" y="163.0"/>
      <point x="204.0" y="305.0" type="curve" smooth="yes"/>
      <point x="204.0" y="536.0"/>
      <point x="362.0" y="1004.0"/>
      <point x="586.0" y="1004.0" type="curve" smooth="yes"/>
      <point x="644.0" y="1004.0"/>
      <point x="678.0" y="960.0"/>
      <point x="678.0" y="892.0" type="curve" smooth="yes"/>
      <point x="678.0" y="747.0"/>
      <point x="582.0" y="646.0"/>
      <point x="192.0" y="524.0" type="curve"/>
      <point x="186.0" y="493.0" type="line"/>
      <point x="420.0" y="552.0"/>
      <point x="687.0" y="646.0"/>
      <point x="765.0" y="695.0" type="curve"/>
      <point x="805.0" y="754.0"/>
      <point x="820.0" y="816.0"/>
      <point x="820.0" y="873.0" type="curve" smooth="yes"/>
      <point x="820.0" y="969.0"/>
      <point x="762.0" y="1044.0"/>
      <point x="623.0" y="1044.0" type="curve" smooth="yes"/>
      <point x="297.0" y="1044.0"/>
      <point x="35.0" y="602.0"/>
      <point x="35.0" y="246.0" type="curve" smooth="yes"/>
      <point x="35.0" y="73.0"/>
      <point x="130.0" y="-20.0"/>
      <point x="294.0" y="-20.0" type="curve" smooth="yes"/>
      <point x="358.0" y="-20.0"/>
      <point x="420.0" y="-3.0"/>
      <point x="480.0" y="43.0" type="curve"/>
      <point x="475.0" y="49.0" type="line"/>
      <point x="430.0" y="-5.0" type="line" smooth="yes"/>
      <point x="242.0" y="-230.0"/>
      <point x="220.0" y="-280.0"/>
      <point x="220.0" y="-349.0" type="curve" smooth="yes"/>
      <point x="220.0" y="-409.0"/>
      <point x="254.0" y="-465.0"/>
      <point x="347.0" y="-465.0" type="curve" smooth="yes"/>
      <point x="415.0" y="-465.0"/>
      <point x="468.0" y="-429.0"/>
      <point x="541.0" y="-328.0" type="curve"/>
      <point x="533.0" y="-319.0" type="line"/>
      <point x="494.0" y="-355.0"/>
      <point x="460.0" y="-370.0"/>
      <point x="420.0" y="-370.0" type="curve" smooth="yes"/>
      <point x="361.0" y="-370.0"/>
      <point x="329.0" y="-344.0"/>
      <point x="329.0" y="-282.0" type="curve" smooth="yes"/>
      <point x="329.0" y="-229.0"/>
      <point x="363.0" y="-127.0"/>
      <point x="493.0" y="39.0" type="curve" smooth="yes"/>
    </contour>
  </outline>
</glyph>
<glyph name="Hbar" format="2">
  <advance width="1588"/>
  <unicode hex="0126"/>
  <outline>
    <contour>
      <point x="385.0" y="712.0" type="line"/>
      <point x="1319.0" y="712.0" type="line"/>
      <point x="1338.0" y="768.0" type="line"/>
      <point x="403.0" y="768.0" type="line"/>
    </contour>
    <contour>
      <point x="246.0" y="1056.0" type="line"/>
      <point x="1683.0" y="1056.0" type="line"/>
      <point x="1703.0" y="1120.0" type="line"/>
      <point x="265.0" y="1120.0" type="line"/>
    </contour>
    <contour>
      <point x="506.0" y="1370.0" type="line"/>
      <point x="107.0" y="60.0" type="line"/>
      <point x="-71.0" y="20.0" type="line"/>
      <point x="-77.0" y="0.0" type="line"/>
      <point x="459.0" y="0.0" type="line"/>
      <point x="464.0" y="20.0" type="line"/>
      <point x="302.0" y="60.0" type="line"/>
      <point x="701.0" y="1370.0" type="line"/>
      <point x="879.0" y="1410.0" type="line"/>
      <point x="885.0" y="1430.0" type="line"/>
      <point x="349.0" y="1430.0" type="line"/>
      <point x="343.0" y="1410.0" type="line"/>
    </contour>
    <contour>
      <point x="1407.0" y="1370.0" type="line"/>
      <point x="1008.0" y="60.0" type="line"/>
      <point x="830.0" y="20.0" type="line"/>
      <point x="824.0" y="0.0" type="line"/>
      <point x="1360.0" y="0.0" type="line"/>
      <point x="1366.0" y="20.0" type="line"/>
      <point x="1204.0" y="60.0" type="line"/>
      <point x="1603.0" y="1370.0" type="line"/>
      <point x="1780.0" y="1410.0" type="line"/>
      <point x="1786.0" y="1430.0" type="line"/>
      <point x="1250.0" y="1430.0" type="line"/>
      <point x="1245.0" y="1410.0" type="line"/>
    </contour>
  </outline>
</glyph>
<glyph name="Iogonek" format="2">
  <advance width="684"/>
  <unicode hex="012E"/>
  <outline>
    <contour>
      <point x="505.0" y="1370.0" type="line"/>
      <point x="106.0" y="60.0" type="line"/>
      <point x="-72.0" y="20.0" type="line"/>
      <point x="-78.0" y="0.0" type="line"/>
      <point x="458.0" y="0.0" type="line"/>
      <point x="463.0" y="20.0" type="line"/>
      <point x="301.0" y="60.0" type="line"/>
      <point x="700.0" y="1370.0" type="line"/>
      <point x="878.0" y="1410.0" type="line"/>
      <point x="884.0" y="1430.0" type="line"/>
      <point x="348.0" y="1430.0" type="line"/>
      <point x="342.0" y="1410.0" type="line"/>
    </contour>
    <contour>
      <point x="30.0" y="-296.0" type="curve" smooth="yes"/>
      <point x="30.0" y="-251.0"/>
      <point x="46.0" y="-199.0"/>
      <point x="151.0" y="-60.0" type="curve" smooth="yes"/>
      <point x="250.0" y="71.0" type="line"/>
      <point x="233.0" y="71.0" type="line"/>
      <point x="81.0" y="-97.0" type="line" smooth="yes"/>
      <point x="-69.0" y="-262.0"/>
      <point x="-90.0" y="-299.0"/>
      <point x="-90.0" y="-365.0" type="curve" smooth="yes"/>
      <point x="-90.0" y="-424.0"/>
      <point x="-50.0" y="-465.0"/>
      <point x="37.0" y="-465.0" type="curve" smooth="yes"/>
      <point x="105.0" y="-465.0"/>
      <point x="158.0" y="-429.0"/>
      <point x="231.0" y="-328.0" type="curve"/>
      <point x="223.0" y="-319.0" type="line"/>
      <point x="184.0" y="-355.0"/>
      <point x="150.0" y="-370.0"/>
      <point x="110.0" y="-370.0" type="curve" smooth="yes"/>
      <point x="62.0" y="-370.0"/>
      <point x="30.0" y="-342.0"/>
    </contour>
  </outline>
</glyph>
<glyph name="iogonek" format="2">
  <advance width="589"/>
  <unicode hex="012F"/>
  <outline>
    <contour>
      <point x="454.0" y="1341.0" type="curve" smooth="yes"/>
      <point x="454.0" y="1275.0"/>
      <point x="502.0" y="1212.0"/>
      <point x="580.0" y="1212.0" type="curve" smooth="yes"/>
      <point x="657.0" y="1212.0"/>
      <point x="702.0" y="1275.0"/>
      <point x="702.0" y="1341.0" type="curve" smooth="yes"/>
      <point x="702.0" y="1405.0"/>
      <point x="657.0" y="1461.0"/>
      <point x="580.0" y="1461.0" type="curve" smooth="yes"/>
      <point x="502.0" y="1461.0"/>
      <point x="454.0" y="1405.0"/>
    </contour>
    <contour>
      <point x="328.0" y="74.0" type="line" smooth="yes"/>
      <point x="391.0" y="129.0"/>
      <point x="462.0" y="211.0"/>
      <point x="541.0" y="323.0" type="curve"/>
      <point x="532.0" y="330.0" type="line"/>
      <point x="328.0" y="123.0"/>
      <point x="242.0" y="97.0"/>
      <point x="199.0" y="124.0" type="curve"/>
      <point x="223.0" y="88.0" type="line"/>
      <point x="538.0" y="932.0" type="line" smooth="yes"/>
      <point x="565.0" y="1003.0"/>
      <point x="547.0" y="1044.0"/>
      <point x="466.0" y="1044.0" type="curve" smooth="yes"/>
      <point x="359.0" y="1044.0"/>
      <point x="234.0" y="944.0"/>
      <point x="62.0" y="701.0" type="curve"/>
      <point x="71.0" y="694.0" type="line"/>
      <point x="250.0" y="881.0"/>
      <point x="345.0" y="920.0"/>
      <point x="399.0" y="906.0" type="curve"/>
      <point x="380.0" y="936.0" type="line"/>
      <point x="65.0" y="92.0" type="line" smooth="yes"/>
      <point x="35.0" y="11.0"/>
      <point x="59.0" y="-20.0"/>
      <point x="138.0" y="-20.0" type="curve" smooth="yes"/>
      <point x="168.0" y="-20.0"/>
      <point x="202.0" y="-10.0"/>
      <point x="239.0" y="10.0" type="curve"/>
      <point x="235.0" y="17.0" type="line"/>
      <point x="93.0" y="-97.0" type="line" smooth="yes"/>
      <point x="-94.0" y="-247.0"/>
      <point x="-112.0" y="-294.0"/>
      <point x="-112.0" y="-355.0" type="curve" smooth="yes"/>
      <point x="-112.0" y="-414.0"/>
      <point x="-72.0" y="-465.0"/>
      <point x="15.0" y="-465.0" type="curve" smooth="yes"/>
      <point x="83.0" y="-465.0"/>
      <point x="136.0" y="-429.0"/>
      <point x="209.0" y="-328.0" type="curve"/>
      <point x="201.0" y="-319.0" type="line"/>
      <point x="162.0" y="-355.0"/>
      <point x="128.0" y="-370.0"/>
      <point x="88.0" y="-370.0" type="curve" smooth="yes"/>
      <point x="33.0" y="-370.0"/>
      <point x="7.0" y="-346.0"/>
      <point x="7.0" y="-296.0" type="curve" smooth="yes"/>
      <point x="7.0" y="-251.0"/>
      <point x="22.0" y="-196.0"/>
      <point x="176.0" y="-60.0" type="curve" smooth="yes"/>
    </contour>
  </outline>
</glyph>
<glyph name="kgreenlandic" format="2">
  <advance width="1070"/>
  <unicode hex="0138"/>
  <outline>
    <contour>
      <point x="567.0" y="1017.0" type="line"/>
      <point x="529.0" y="1033.0"/>
      <point x="494.0" y="1044.0"/>
      <point x="446.0" y="1044.0" type="curve" smooth="yes"/>
      <point x="307.0" y="1044.0"/>
      <point x="200.0" y="940.0"/>
      <point x="62.0" y="614.0" type="curve"/>
      <point x="73.0" y="609.0" type="line"/>
      <point x="209.0" y="849.0"/>
      <point x="299.0" y="907.0"/>
      <point x="342.0" y="907.0" type="curve" smooth="yes"/>
      <point x="365.0" y="907.0"/>
      <point x="368.0" y="887.0"/>
      <point x="360.0" y="862.0" type="curve" smooth="yes"/>
      <point x="77.0" y="0.0" type="line"/>
      <point x="240.0" y="0.0" type="line"/>
    </contour>
    <contour>
      <point x="994.0" y="782.0" type="curve" smooth="yes"/>
      <point x="1068.0" y="782.0"/>
      <point x="1137.0" y="843.0"/>
      <point x="1137.0" y="934.0" type="curve" smooth="yes"/>
      <point x="1137.0" y="997.0"/>
      <point x="1099" y="1044"/>
      <point x="1014.0" y="1044.0" type="curve" smooth="yes"/>
      <point x="926.0" y="1044.0"/>
      <point x="802.0" y="971.0"/>
      <point x="407.0" y="540.0" type="curve"/>
      <point x="405.0" y="532.0" type="line"/>
      <point x="520.0" y="111.0"/>
      <point x="593" y="-20"/>
      <point x="686.0" y="-20.0" type="curve" smooth="yes"/>
      <point x="776.0" y="-20.0"/>
      <point x="859.0" y="40.0"/>
      <point x="1010.0" y="321.0" type="curve"/>
      <point x="998.0" y="328.0" type="line"/>
      <point x="874.0" y="144.0"/>
      <point x="815.0" y="100.0"/>
      <point x="776.0" y="100.0" type="curve" smooth="yes"/>
      <point x="726" y="100"/>
      <point x="654" y="227"/>
      <point x="526.0" y="649.0" type="curve"/>
      <point x="466.0" y="570.0" type="line"/>
      <point x="689" y="821"/>
      <point x="850" y="920.0"/>
      <point x="910.0" y="920.0" type="curve" smooth="yes"/>
      <point x="930" y="920"/>
      <point x="937.0" y="908.0"/>
      <point x="929.0" y="859.0" type="curve" smooth="yes"/>
      <point x="921.0" y="810.0"/>
      <point x="937.0" y="782.0"/>
    </contour>
  </outline>
</glyph>
<glyph name="Lslash" format="2">
  <advance width="1207"/>
  <unicode hex="0141"/>
  <guideline x="-58.0" y="0" angle="1.8698647290474684" identifier="gtxH5zrji0"/>
  <outline>
    <contour>
      <point x="720.0" y="1370.0" type="line"/>
      <point x="898.0" y="1410.0" type="line"/>
      <point x="904.0" y="1430.0" type="line"/>
      <point x="368.0" y="1430.0" type="line"/>
      <point x="362.0" y="1410.0" type="line"/>
      <point x="525.0" y="1370.0" type="line"/>
      <point x="126.0" y="60.0" type="line"/>
      <point x="-52.0" y="20.0" type="line"/>
      <point x="-58.0" y="0.0" type="line"/>
      <point x="303.0" y="0.0" type="line"/>
    </contour>
    <contour>
      <point x="758.0" y="38.0" type="line"/>
      <point x="819.0" y="56.0" type="line"/>
      <point x="189.0" y="56.0" type="line"/>
      <point x="171.0" y="0.0" type="line"/>
      <point x="774.0" y="0.0" type="line"/>
      <point x="901.0" y="-54.0" type="line"/>
      <point x="908.0" y="-54.0" type="line"/>
      <point x="1150.0" y="387.0" type="line"/>
      <point x="1130.0" y="402.0" type="line"/>
    </contour>
    <contour>
      <point x="913.0" y="947.0" type="line"/>
      <point x="476.0" y="735.0" type="line"/>
      <point x="379.0" y="718.0" type="line"/>
      <point x="123.0" y="594.0" type="line"/>
      <point x="100.0" y="516.0" type="line"/>
      <point x="356.0" y="640.0" type="line"/>
      <point x="453.0" y="658.0" type="line"/>
      <point x="891.0" y="870.0" type="line"/>
    </contour>
  </outline>
</glyph>
<glyph name="lslash" format="2">
  <advance width="638"/>
  <unicode hex="0142"/>
  <outline>
    <contour>
      <point x="77.0" y="585.0" type="line"/>
      <point x="51.0" y="499.0" type="line"/>
      <point x="305.0" y="662.0" type="line"/>
      <point x="361.0" y="663.0" type="line"/>
      <point x="630.0" y="837.0" type="line"/>
      <point x="657.0" y="923.0" type="line"/>
      <point x="387.0" y="749.0" type="line"/>
      <point x="331.0" y="748.0" type="line"/>
    </contour>
    <contour>
      <point x="362.0" y="1364.0066225165563"/>
      <point x="420.0" y="1326.364238410596"/>
      <point x="456.0" y="1303.0" type="curve"/>
      <point x="68.0" y="92.0" type="line" smooth="yes"/>
      <point x="41.0" y="9.0"/>
      <point x="62.0" y="-20.0"/>
      <point x="148.0" y="-20.0" type="curve" smooth="yes"/>
      <point x="236.0" y="-20.0"/>
      <point x="368.0" y="80.0"/>
      <point x="540.0" y="323.0" type="curve"/>
      <point x="531.0" y="330.0" type="line"/>
      <point x="338.0" y="127.0"/>
      <point x="235.0" y="99.0"/>
      <point x="204.0" y="124.0" type="curve"/>
      <point x="224.0" y="87.0" type="line"/>
      <point x="672.0" y="1484.0" type="line"/>
      <point x="669.0" y="1484.0" type="line"/>
      <point x="306.0" y="1407.0" type="line"/>
      <point x="305.0" y="1401.0" type="line"/>
    </contour>
  </outline>
</glyph>
<glyph name="tbar" format="2">
  <advance width="639"/>
  <unicode hex="0167"/>
  <outline>
    <contour>
      <point x="67.0" y="579.0" type="line"/>
      <point x="587.0" y="579.0" type="line"/>
      <point x="606.0" y="643.0" type="line"/>
      <point x="86.0" y="643.0" type="line"/>
    </contour>
    <contour>
      <point x="151.0" y="972.0" type="line"/>
      <point x="719.0" y="972.0" type="line"/>
      <point x="732.0" y="1024.0" type="line"/>
      <point x="167.0" y="1024.0" type="line"/>
    </contour>
    <contour>
      <point x="249.0" y="152.0" type="curve" smooth="yes"/>
      <point x="249.0" y="167.0"/>
      <point x="252.0" y="188.0"/>
      <point x="267.0" y="234.0" type="curve" smooth="yes"/>
      <point x="599.0" y="1270.0" type="line"/>
      <point x="433.0" y="1270.0" type="line"/>
      <point x="110.0" y="262.0" type="line" smooth="yes"/>
      <point x="76.0" y="157.0"/>
      <point x="74.0" y="119.0"/>
      <point x="74.0" y="93.0" type="curve" smooth="yes"/>
      <point x="74.0" y="12.0"/>
      <point x="119.0" y="-20.0"/>
      <point x="178.0" y="-20.0" type="curve" smooth="yes"/>
      <point x="267.0" y="-20.0"/>
      <point x="389.0" y="27.0"/>
      <point x="591.0" y="333.0" type="curve"/>
      <point x="582.0" y="340.0" type="line"/>
      <point x="428.0" y="150.0"/>
      <point x="341.0" y="117.0"/>
      <point x="294.0" y="117.0" type="curve" smooth="yes"/>
      <point x="265.0" y="117.0"/>
      <point x="249.0" y="127.0"/>
    </contour>
  </outline>
</glyph>
<glyph name="uni0259" format="2">
  <advance width="813"/>
  <unicode hex="0259"/>
  <outline>
    <contour>
      <point x="226.0" y="20.0" type="curve" smooth="yes"/>
      <point x="168.0" y="20.0"/>
      <point x="134.0" y="64.0"/>
      <point x="134.0" y="132.0" type="curve" smooth="yes"/>
      <point x="134.0" y="277.0"/>
      <point x="230.0" y="378.0"/>
      <point x="620.0" y="500.0" type="curve"/>
      <point x="626.0" y="531.0" type="line"/>
      <point x="392.0" y="472.0"/>
      <point x="125.0" y="378.0"/>
      <point x="47.0" y="329.0" type="curve"/>
      <point x="7.0" y="270.0"/>
      <point x="-8.0" y="208.0"/>
      <point x="-8.0" y="151.0" type="curve" smooth="yes"/>
      <point x="-8.0" y="55.0"/>
      <point x="50.0" y="-20.0"/>
      <point x="189.0" y="-20.0" type="curve" smooth="yes"/>
      <point x="515.0" y="-20.0"/>
      <point x="777.0" y="422.0"/>
      <point x="777.0" y="778.0" type="curve" smooth="yes"/>
      <point x="777.0" y="951.0"/>
      <point x="682.0" y="1044.0"/>
      <point x="518.0" y="1044.0" type="curve" smooth="yes"/>
      <point x="372.0" y="1044.0"/>
      <point x="235.0" y="956.0"/>
      <point x="104.0" y="629.0" type="curve"/>
      <point x="115.0" y="627.0" type="line"/>
      <point x="234.0" y="847.0"/>
      <point x="348.0" y="915.0"/>
      <point x="459.0" y="915.0" type="curve" smooth="yes"/>
      <point x="556.0" y="915.0"/>
      <point x="608.0" y="861.0"/>
      <point x="608.0" y="719.0" type="curve" smooth="yes"/>
      <point x="608.0" y="488.0"/>
      <point x="450.0" y="20.0"/>
    </contour>
  </outline>
</glyph>
<glyph name="gravecomb" format="2">
  <unicode hex="0300"/>
  <anchor x="157" y="1024" name="_top"/>
  <anchor x="313" y="1535" name="top"/>
  <outline>
    <contour>
      <point x="223.0" y="1138.0" type="line"/>
      <point x="167.0" y="1464.0" type="line"/>
      <point x="4.0" y="1464.0" type="line"/>
      <point x="2.0" y="1456.0" type="line"/>
      <point x="195.0" y="1138.0" type="line"/>
    </contour>
  </outline>
</glyph>
<glyph name="uni0302" format="2">
  <unicode hex="0302"/>
  <anchor x="157" y="1024" name="_top"/>
  <anchor x="291" y="1464" name="top"/>
  <outline>
    <contour>
      <point x="-107.0" y="1138.0" type="line"/>
      <point x="-62.0" y="1138.0" type="line"/>
      <point x="327.0" y="1384.0" type="line"/>
      <point x="248.0" y="1384.0" type="line"/>
      <point x="456.0" y="1138.0" type="line"/>
      <point x="492.0" y="1138.0" type="line"/>
      <point x="355.0" y="1464.0" type="line"/>
      <point x="226.0" y="1464.0" type="line"/>
    </contour>
  </outline>
</glyph>
<glyph name="uni0304" format="2">
  <unicode hex="0304"/>
  <anchor x="157" y="1024" name="_top"/>
  <anchor x="291" y="1464" name="top"/>
  <outline>
    <contour>
      <point x="-42.0" y="1264.0" type="line"/>
      <point x="502.0" y="1264.0" type="line"/>
      <point x="525.0" y="1339.0" type="line"/>
      <point x="-19.0" y="1339.0" type="line"/>
    </contour>
  </outline>
</glyph>
<glyph name="hookabovecomb" format="2">
  <unicode hex="0309"/>
  <anchor x="157" y="1024" name="_top"/>
  <anchor x="291" y="1464" name="top"/>
  <outline>
    <contour>
      <point x="104.0" y="1381.0" type="line"/>
      <point x="281.0" y="1374.0"/>
      <point x="335.0" y="1350.0"/>
      <point x="335.0" y="1299.0" type="curve" smooth="yes"/>
      <point x="335.0" y="1247.0"/>
      <point x="264.0" y="1197.0"/>
      <point x="123.0" y="1156.0" type="curve"/>
      <point x="122.0" y="1125.0" type="line"/>
      <point x="373.0" y="1187.0"/>
      <point x="446.0" y="1281.0"/>
      <point x="446.0" y="1354.0" type="curve" smooth="yes"/>
      <point x="446.0" y="1437.0"/>
      <point x="380.0" y="1484.0"/>
      <point x="148.0" y="1496.0" type="curve"/>
    </contour>
  </outline>
</glyph>
<glyph name="uni030A" format="2">
  <unicode hex="030A"/>
  <anchor x="158" y="1024" name="_top"/>
  <anchor x="291" y="1464" name="top"/>
  <outline>
    <contour>
      <point x="265.0" y="1484.0" type="curve" smooth="yes"/>
      <point x="140.0" y="1484.0"/>
      <point x="53.0" y="1389.4502369668246"/>
      <point x="53.0" y="1274.0" type="curve" smooth="yes"/>
      <point x="53.0" y="1179.0"/>
      <point x="121.0" y="1117.0"/>
      <point x="217.0" y="1117.0" type="curve" smooth="yes"/>
      <point x="342.0" y="1117.0"/>
      <point x="429.0" y="1212.0"/>
      <point x="429.0" y="1328.0" type="curve" smooth="yes"/>
      <point x="429.0" y="1422.3949044585988"/>
      <point x="361.0" y="1484.0"/>
    </contour>
    <contour>
      <point x="223.0" y="1159.0" type="curve" smooth="yes"/>
      <point x="149.0" y="1159.0"/>
      <point x="101.0" y="1201.0"/>
      <point x="101.0" y="1278.0" type="curve" smooth="yes"/>
      <point x="101.0" y="1360.4969696969697"/>
      <point x="156.0" y="1442.0"/>
      <point x="259.0" y="1442.0" type="curve" smooth="yes"/>
      <point x="333.0" y="1442.0"/>
      <point x="382.0" y="1400.3529411764705"/>
      <point x="382.0" y="1324.0" type="curve" smooth="yes"/>
      <point x="382.0" y="1241.0"/>
      <point x="326.0" y="1159.0"/>
    </contour>
  </outline>
</glyph>
<glyph name="uni0324" format="2">
  <unicode hex="0324"/>
  <anchor x="-157" y="0" name="_bottom"/>
  <anchor x="-299" y="-465" name="bottom"/>
  <outline>
    <contour>
      <point x="-433.0" y="-320.0" type="curve" smooth="yes"/>
      <point x="-367.0" y="-320.0"/>
      <point x="-311.0" y="-265.0"/>
      <point x="-311.0" y="-197.0" type="curve" smooth="yes"/>
      <point x="-311.0" y="-153.0"/>
      <point x="-341.0" y="-115.0"/>
      <point x="-396.0" y="-115.0" type="curve" smooth="yes"/>
      <point x="-461.0" y="-115.0"/>
      <point x="-518.0" y="-170.0"/>
      <point x="-518.0" y="-238.0" type="curve" smooth="yes"/>
      <point x="-518.0" y="-282.0"/>
      <point x="-488.0" y="-320.0"/>
    </contour>
    <contour>
      <point x="-50.0" y="-320.0" type="curve" smooth="yes"/>
      <point x="16.0" y="-320.0"/>
      <point x="72.0" y="-265.0"/>
      <point x="72.0" y="-197.0" type="curve" smooth="yes"/>
      <point x="72.0" y="-153.0"/>
      <point x="42.0" y="-115.0"/>
      <point x="-13.0" y="-115.0" type="curve" smooth="yes"/>
      <point x="-78.0" y="-115.0"/>
      <point x="-135.0" y="-170.0"/>
      <point x="-135.0" y="-238.0" type="curve" smooth="yes"/>
      <point x="-135.0" y="-282.0"/>
      <point x="-105.0" y="-320.0"/>
    </contour>
  </outline>
</glyph>
<glyph name="uni0326" format="2">
  <unicode hex="0326"/>
  <anchor x="-157" y="0" name="_bottom"/>
  <anchor x="-299" y="-465" name="bottom"/>
  <outline>
    <contour>
      <point x="-318.0" y="-192.0" type="curve" smooth="yes"/>
      <point x="-318.0" y="-221.0"/>
      <point x="-222.0" y="-218.41304347826087"/>
      <point x="-222.0" y="-282.0" type="curve" smooth="yes"/>
      <point x="-222.0" y="-326.76521739130436"/>
      <point x="-274.60537673064914" y="-387.8752775937979"/>
      <point x="-399.0" y="-399.0" type="curve"/>
      <point x="-410.0" y="-433.0" type="line"/>
      <point x="-181.54787176840568" y="-411.8656621459759"/>
      <point x="-98.0" y="-254.0"/>
      <point x="-98.0" y="-177.0" type="curve" smooth="yes"/>
      <point x="-98.0" y="-118.0"/>
      <point x="-130.04494382022472" y="-81.0"/>
      <point x="-190.0" y="-81.0" type="curve" smooth="yes"/>
      <point x="-260.35114503816794" y="-81.0"/>
      <point x="-318.0" y="-144.0"/>
    </contour>
  </outline>
</glyph>
<glyph name="uni032E" format="2">
  <unicode hex="032E"/>
  <anchor x="-157" y="0" name="_bottom"/>
  <anchor x="-299" y="-465" name="bottom"/>
  <outline>
    <contour>
      <point x="-238.0" y="-269.0" type="curve" smooth="yes"/>
      <point x="-371.0" y="-269.0"/>
      <point x="-426.0" y="-205.0"/>
      <point x="-422.0" y="-50.0" type="curve"/>
      <point x="-462.0" y="-50.0" type="line"/>
      <point x="-475.0" y="-315.0"/>
      <point x="-422.0" y="-386.0"/>
      <point x="-273.0" y="-386.0" type="curve" smooth="yes"/>
      <point x="-113.0" y="-386.0"/>
      <point x="-27.0" y="-313.0"/>
      <point x="118.0" y="-50.0" type="curve"/>
      <point x="74.0" y="-50.0" type="line"/>
      <point x="-14.0" y="-204.0"/>
      <point x="-115.0" y="-269.0"/>
    </contour>
  </outline>
</glyph>
<glyph name="uni0331" format="2">
  <unicode hex="0331"/>
  <anchor x="-157" y="0" name="_bottom"/>
  <anchor x="-299" y="-465" name="bottom"/>
  <outline>
    <contour>
      <point x="-506.0" y="-255.0" type="line"/>
      <point x="37.0" y="-255.0" type="line"/>
      <point x="60.0" y="-180.0" type="line"/>
      <point x="-483.0" y="-180.0" type="line"/>
    </contour>
  </outline>
</glyph>
<glyph name="uni0335" format="2">
  <unicode hex="0335"/>
  <anchor x="212" y="1207" name="_center"/>
  <outline>
    <contour>
      <point x="-114.0" y="1175.0" type="line"/>
      <point x="519.0" y="1175.0" type="line"/>
      <point x="539.0" y="1239.0" type="line"/>
      <point x="-94.0" y="1239.0" type="line"/>
    </contour>
  </outline>
</glyph>
<glyph name="quoteleft" format="2">
  <advance width="453"/>
  <unicode hex="2018"/>
  <outline>
    <contour>
      <point x="649.0" y="1419.0" type="curve"/>
      <point x="637.0" y="1449.0" type="line"/>
      <point x="376.0" y="1337.0"/>
      <point x="248.0" y="1189.0"/>
      <point x="248.0" y="1048.0" type="curve" smooth="yes"/>
      <point x="248.0" y="971.0"/>
      <point x="291.0" y="930.0"/>
      <point x="359.0" y="930.0" type="curve" smooth="yes"/>
      <point x="452.0" y="930.0"/>
      <point x="508.0" y="1001.0"/>
      <point x="508.0" y="1058.0" type="curve" smooth="yes"/>
      <point x="508.0" y="1074.0"/>
      <point x="411.0" y="1098.0"/>
      <point x="411.0" y="1180.0" type="curve" smooth="yes"/>
      <point x="411.0" y="1249.0"/>
      <point x="476.0" y="1338.0"/>
    </contour>
  </outline>
</glyph>
<glyph name="dagger" format="2">
  <advance width="736"/>
  <unicode hex="2020"/>
  <outline>
    <contour>
      <point x="589.0" y="1190.0" type="line"/>
      <point x="722.0" y="1464.0" type="line"/>
      <point x="583.0" y="1464.0" type="line"/>
      <point x="549.0" y="1190.0" type="line"/>
      <point x="413.0" y="895.0" type="line"/>
      <point x="390.0" y="627.0" type="line"/>
      <point x="403.0" y="627.0" type="line"/>
      <point x="544.0" y="895.0" type="line"/>
    </contour>
    <contour>
      <point x="575.0" y="1211.0" type="line"/>
      <point x="326.0" y="1260.0" type="line"/>
      <point x="283.0" y="1119.0" type="line"/>
      <point x="563.0" y="1169.0" type="line"/>
      <point x="815.0" y="1119.0" type="line"/>
      <point x="858.0" y="1260.0" type="line"/>
    </contour>
  </outline>
</glyph>
<glyph name="minute" format="2">
  <advance width="369"/>
  <unicode hex="2032"/>
  <outline>
    <contour>
      <point x="246.0" y="961.0" type="line"/>
      <point x="284.0" y="961.0" type="line"/>
      <point x="587.0" y="1416.0" type="line"/>
      <point x="591.0" y="1430.0" type="line"/>
      <point x="406.0" y="1430.0" type="line"/>
    </contour>
  </outline>
</glyph>
<glyph name="guilsinglright" format="2">
  <advance width="593"/>
  <unicode hex="203A"/>
  <outline>
    <contour>
      <point x="347.0" y="460.0" type="line"/>
      <point x="373.0" y="610.0" type="line"/>
      <point x="-26.0" y="106.0" type="line"/>
      <point x="-13.0" y="93.0" type="line"/>
      <point x="499.0" y="515.0" type="line"/>
      <point x="504.0" y="529.0" type="line"/>
      <point x="250.0" y="951.0" type="line"/>
      <point x="232.0" y="943.0" type="line"/>
    </contour>
  </outline>
</glyph>
<glyph name="zerosuperior" format="2">
  <advance width="750"/>
  <unicode hex="2070"/>
  <outline>
    <contour>
      <point x="417.0" y="683.0" type="curve" smooth="yes"/>
      <point x="359.0" y="683.0"/>
      <point x="334.0" y="735.0"/>
      <point x="334.0" y="845.0" type="curve" smooth="yes"/>
      <point x="334.0" y="1074.0"/>
      <point x="496.0" y="1409.0"/>
      <point x="658.0" y="1409.0" type="curve" smooth="yes"/>
      <point x="716.0" y="1409.0"/>
      <point x="741.0" y="1357.0"/>
      <point x="741.0" y="1247.0" type="curve" smooth="yes"/>
      <point x="741.0" y="1018.0"/>
      <point x="579.0" y="683.0"/>
    </contour>
    <contour>
      <point x="650.0" y="1444.0" type="curve" smooth="yes"/>
      <point x="429.0" y="1444.0"/>
      <point x="208.0" y="1168.0"/>
      <point x="208.0" y="886.0" type="curve" smooth="yes"/>
      <point x="208.0" y="735.0"/>
      <point x="291.0" y="648.0"/>
      <point x="425.0" y="648.0" type="curve" smooth="yes"/>
      <point x="646.0" y="648.0"/>
      <point x="867.0" y="924.0"/>
      <point x="867.0" y="1206.0" type="curve" smooth="yes"/>
      <point x="867.0" y="1357.0"/>
      <point x="784.0" y="1444.0"/>
    </contour>
  </outline>
</glyph>
<glyph name="uni2074" format="2">
  <advance width="696"/>
  <unicode hex="2074"/>
  <outline>
    <contour>
      <point x="598.0" y="1345.0" type="line"/>
      <point x="404.0" y="710.0" type="line"/>
      <point x="255.0" y="679.0" type="line"/>
      <point x="250.0" y="662.0" type="line"/>
      <point x="653.0" y="662.0" type="line"/>
      <point x="658.0" y="679.0" type="line"/>
      <point x="542.0" y="710.0" type="line"/>
      <point x="763.0" y="1435.0" type="line"/>
      <point x="676.0" y="1435.0" type="line"/>
      <point x="157.0" y="945.0" type="line"/>
      <point x="141.0" y="892.0" type="line"/>
      <point x="753.0" y="892.0" type="line"/>
      <point x="819.0" y="1009.0" type="line"/>
      <point x="725.0" y="991.0" type="line"/>
      <point x="220.0" y="991.0" type="line"/>
      <point x="207.0" y="945.0" type="line"/>
      <point x="639.0" y="1349.0" type="line"/>
    </contour>
  </outline>
</glyph>
<glyph name="peseta" format="2">
  <advance width="1200"/>
  <unicode hex="20A7"/>
  <outline>
    <contour>
      <point x="634.0" y="148.0" type="curve" smooth="yes"/>
      <point x="921.0" y="1090.0" type="line"/>
      <point x="898.0" y="1090.0" type="line"/>
      <point x="820.0" y="952.0"/>
      <point x="761.0" y="902.0"/>
      <point x="690.0" y="877.0" type="curve"/>
      <point x="684.0" y="857.0" type="line"/>
      <point x="725.0" y="857.0" type="line"/>
      <point x="517.0" y="175.0" type="line" smooth="yes"/>
      <point x="471.0" y="25.0"/>
      <point x="533.0" y="-14.0"/>
      <point x="598.0" y="-14.0" type="curve" smooth="yes"/>
      <point x="645.0" y="-14.0"/>
      <point x="650.0" y="-6.0"/>
      <point x="747.0" y="45.0" type="curve"/>
      <point x="756.0" y="74.0" type="line"/>
      <point x="712.0" y="62.0"/>
      <point x="696.0" y="59.0"/>
      <point x="664.0" y="59.0" type="curve" smooth="yes"/>
      <point x="622.0" y="59.0"/>
      <point x="616.0" y="90.0"/>
    </contour>
    <contour>
      <point x="796.0" y="857.0" type="line"/>
      <point x="945.0" y="857.0" type="line"/>
      <point x="973.0" y="925.0" type="line"/>
      <point x="820.0" y="925.0" type="line"/>
    </contour>
    <contour>
      <point x="334.0" y="1383.0" type="line"/>
      <point x="-76.0" y="50.0" type="line"/>
      <point x="-194.0" y="20.0" type="line"/>
      <point x="-199.0" y="0.0" type="line"/>
      <point x="196.0" y="0.0" type="line"/>
      <point x="202.0" y="20.0" type="line"/>
      <point x="81.0" y="50.0" type="line"/>
      <point x="504.0" y="1430.0" type="line"/>
      <point x="229.0" y="1430.0" type="line"/>
      <point x="223.0" y="1410.0" type="line"/>
    </contour>
    <contour>
      <point x="1213.0" y="966.0" type="curve" smooth="yes"/>
      <point x="1056.313953488372" y="966.0"/>
      <point x="968.0" y="831.0"/>
      <point x="968.0" y="681.0" type="curve" smooth="yes"/>
      <point x="968.0" y="524.0"/>
      <point x="1062.0" y="390.0"/>
      <point x="1062.0" y="243.0" type="curve" smooth="yes"/>
      <point x="1062.0" y="79.0"/>
      <point x="996.8220858895705" y="26.0"/>
      <point x="914.0" y="26.0" type="curve" smooth="yes"/>
      <point x="891.0" y="26.0"/>
      <point x="869.0" y="30.0"/>
      <point x="856.0" y="37.0" type="curve"/>
      <point x="876.0" y="4.0" type="line"/>
      <point x="867.0" y="265.0" type="line"/>
      <point x="850.0" y="265.0" type="line"/>
      <point x="800.0" y="5.0" type="line"/>
      <point x="836.0" y="-9.0"/>
      <point x="873.0" y="-16.0"/>
      <point x="922.0" y="-16.0" type="curve" smooth="yes"/>
      <point x="1066.8145454545454" y="-16.0"/>
      <point x="1187.0" y="109.0"/>
      <point x="1187.0" y="293.0" type="curve" smooth="yes"/>
      <point x="1187.0" y="495.0"/>
      <point x="1083.0" y="583.0"/>
      <point x="1083.0" y="766.0" type="curve" smooth="yes"/>
      <point x="1083.0" y="845.0"/>
      <point x="1130.3712121212122" y="923.0"/>
      <point x="1207.0" y="923.0" type="curve" smooth="yes"/>
      <point x="1230.0" y="923.0"/>
      <point x="1255.0" y="919.0"/>
      <point x="1269.0" y="911.0" type="curve"/>
      <point x="1247.0" y="937.0" type="line"/>
      <point x="1249.0" y="698.0" type="line"/>
      <point x="1265.0" y="698.0" type="line"/>
      <point x="1322.0" y="938.0" type="line"/>
      <point x="1298.0" y="954.0"/>
      <point x="1256.0" y="966.0"/>
    </contour>
    <contour>
      <point x="298.0" y="696.0" type="curve" smooth="yes"/>
      <point x="234.0" y="696.0" type="line"/>
      <point x="211.0" y="651.0" type="line"/>
      <point x="300.0" y="651.0" type="line" smooth="yes"/>
      <point x="555.0" y="651.0"/>
      <point x="747.0" y="914.0"/>
      <point x="747.0" y="1193.0" type="curve" smooth="yes"/>
      <point x="747.0" y="1351.0"/>
      <point x="668.0" y="1430.0"/>
      <point x="507.0" y="1430.0" type="curve" smooth="yes"/>
      <point x="454.0" y="1430.0" type="line"/>
      <point x="445.0" y="1385.0" type="line"/>
      <point x="501.0" y="1385.0" type="line" smooth="yes"/>
      <point x="574.0" y="1385.0"/>
      <point x="602.0" y="1340.0"/>
      <point x="602.0" y="1218.0" type="curve" smooth="yes"/>
      <point x="602.0" y="959.0"/>
      <point x="458.0" y="696.0"/>
    </contour>
  </outline>
</glyph>
<glyph name="trademark" format="2">
  <advance width="1572"/>
  <unicode hex="2122"/>
  <outline>
    <contour>
      <point x="572.0" y="1418.0" type="line"/>
      <point x="413.0" y="900.0" type="line"/>
      <point x="335.0" y="880.0" type="line"/>
      <point x="330.0" y="863.0" type="line"/>
      <point x="590.0" y="863.0" type="line"/>
      <point x="595.0" y="880.0" type="line"/>
      <point x="527.0" y="900.0" type="line"/>
      <point x="686.0" y="1418.0" type="line"/>
    </contour>
    <contour>
      <point x="1507.0" y="901.0" type="line"/>
      <point x="1621.0" y="1393.0" type="line"/>
      <point x="1703.0" y="1412.0" type="line"/>
      <point x="1709.0" y="1430.0" type="line"/>
      <point x="1505.0" y="1430.0" type="line"/>
      <point x="1165.0" y="933.0" type="line"/>
      <point x="1196.0" y="933.0" type="line"/>
      <point x="1163.0" y="1430.0" type="line"/>
      <point x="968.0" y="1430.0" type="line"/>
      <point x="962.0" y="1412.0" type="line"/>
      <point x="1032.0" y="1385.0" type="line"/>
      <point x="852.0" y="895.0" type="line"/>
      <point x="775.0" y="880.0" type="line"/>
      <point x="770.0" y="863.0" type="line"/>
      <point x="944.0" y="863.0" type="line"/>
      <point x="950.0" y="880.0" type="line"/>
      <point x="889.0" y="895.0" type="line"/>
      <point x="1069.0" y="1390.0" type="line"/>
      <point x="1053.0" y="1390.0" type="line"/>
      <point x="1089.0" y="859.0" type="line"/>
      <point x="1155.0" y="859.0" type="line"/>
      <point x="1511.0" y="1382.0" type="line"/>
      <point x="1503.0" y="1383.0" type="line"/>
      <point x="1389.0" y="901.0" type="line"/>
      <point x="1313.0" y="880.0" type="line"/>
      <point x="1307.0" y="863.0" type="line"/>
      <point x="1571.0" y="863.0" type="line"/>
      <point x="1577.0" y="880.0" type="line"/>
    </contour>
    <contour>
      <point x="857.0" y="1394.0" type="line"/>
      <point x="822.0" y="1413.0" type="line"/>
      <point x="838.0" y="1239.0" type="line"/>
      <point x="855.0" y="1239.0" type="line"/>
      <point x="901.0" y="1461.0" type="line"/>
      <point x="889.0" y="1461.0" type="line"/>
      <point x="821.0" y="1422.0" type="line"/>
      <point x="858.0" y="1430.0" type="line"/>
      <point x="408.0" y="1430.0" type="line"/>
      <point x="445.0" y="1422.0" type="line"/>
      <point x="396.0" y="1461.0" type="line"/>
      <point x="383.0" y="1461.0" type="line"/>
      <point x="293.0" y="1240.0" type="line"/>
      <point x="311.0" y="1238.0" type="line"/>
      <point x="454.0" y="1413.0" type="line"/>
      <point x="387.0" y="1394.0" type="line"/>
    </contour>
  </outline>
</glyph>
<glyph name="notequal" format="2">
  <advance width="1150"/>
  <unicode hex="2260"/>
  <outline>
    <contour>
      <point x="13.0" y="22.0" type="line"/>
      <point x="99.0" y="22.0" type="line"/>
      <point x="1135.0" y="1001.0" type="line"/>
      <point x="1049.0" y="1001.0" type="line"/>
    </contour>
    <contour>
      <point x="225.0" y="716.0" type="line"/>
      <point x="205.0" y="650.0" type="line"/>
      <point x="1027.0" y="650.0" type="line"/>
      <point x="1047.0" y="716.0" type="line"/>
    </contour>
    <contour>
      <point x="121.0" y="376.0" type="line"/>
      <point x="101.0" y="310.0" type="line"/>
      <point x="923.0" y="310.0" type="line"/>
      <point x="943.0" y="376.0" type="line"/>
    </contour>
  </outline>
</glyph>
<glyph name="f_f" format="2">
  <advance width="1036"/>
  <unicode hex="FB00"/>
  <outline>
    <contour>
      <point x="1191.0" y="1024.0" type="line"/>
      <point x="142.0" y="1024.0" type="line"/>
      <point x="133.0" y="972.0" type="line"/>
      <point x="1181.0" y="972.0" type="line"/>
    </contour>
    <contour>
      <point x="329.0" y="982.0" type="curve" smooth="yes"/>
      <point x="124.0" y="81.0" type="line" smooth="yes"/>
      <point x="35" y="-309"/>
      <point x="-64.0" y="-418.0"/>
      <point x="-157.0" y="-418.0" type="curve" smooth="yes"/>
      <point x="-192.0" y="-418.0"/>
      <point x="-202.0" y="-404.0"/>
      <point x="-186.0" y="-331.0" type="curve" smooth="yes"/>
      <point x="-170.0" y="-258.0"/>
      <point x="-187.0" y="-233.0"/>
      <point x="-240.0" y="-233.0" type="curve" smooth="yes"/>
      <point x="-303.0" y="-233.0"/>
      <point x="-340.0" y="-284.0"/>
      <point x="-340.0" y="-342.0" type="curve" smooth="yes"/>
      <point x="-340.0" y="-416.0"/>
      <point x="-287.0" y="-465.0"/>
      <point x="-195.0" y="-465.0" type="curve" smooth="yes"/>
      <point x="-19.0" y="-465.0"/>
      <point x="176" y="-276"/>
      <point x="304.0" y="237.0" type="curve" smooth="yes"/>
      <point x="509.0" y="1056.0" type="line" smooth="yes"/>
      <point x="572" y="1308"/>
      <point x="674.0" y="1403.0"/>
      <point x="773.0" y="1403.0" type="curve" smooth="yes"/>
      <point x="854.0" y="1403.0"/>
      <point x="911.0" y="1359.0"/>
      <point x="974.0" y="1235.0" type="curve"/>
      <point x="1060.0" y="1357.0" type="line"/>
      <point x="1012.0" y="1424.0"/>
      <point x="943.0" y="1449.0"/>
      <point x="856.0" y="1449.0" type="curve" smooth="yes"/>
      <point x="631.0" y="1449.0"/>
      <point x="398" y="1286"/>
    </contour>
    <contour>
      <point x="789.0" y="982.0" type="curve" smooth="yes"/>
      <point x="584.0" y="81.0" type="line" smooth="yes"/>
      <point x="506" y="-262"/>
      <point x="372.0" y="-384.0"/>
      <point x="243.0" y="-384.0" type="curve" smooth="yes"/>
      <point x="160.0" y="-384.0"/>
      <point x="116.0" y="-323.0"/>
      <point x="100.0" y="-188.0" type="curve"/>
      <point x="-5.0" y="-333.0" type="line"/>
      <point x="42.0" y="-396.0"/>
      <point x="107.0" y="-425.0"/>
      <point x="214.0" y="-425.0" type="curve" smooth="yes"/>
      <point x="424.0" y="-425.0"/>
      <point x="644" y="-244"/>
      <point x="764.0" y="237.0" type="curve" smooth="yes"/>
      <point x="969.0" y="1056.0" type="line" smooth="yes"/>
      <point x="1039" y="1334"/>
      <point x="1152.0" y="1445.0"/>
      <point x="1255.0" y="1445.0" type="curve" smooth="yes"/>
      <point x="1298.0" y="1445.0"/>
      <point x="1312.0" y="1417.0"/>
      <point x="1299.0" y="1343.0" type="curve" smooth="yes"/>
      <point x="1286.0" y="1269.0"/>
      <point x="1297.0" y="1235.0"/>
      <point x="1348.0" y="1235.0" type="curve" smooth="yes"/>
      <point x="1427.0" y="1235.0"/>
      <point x="1485.0" y="1287.0"/>
      <point x="1485.0" y="1368.0" type="curve" smooth="yes"/>
      <point x="1485.0" y="1435.0"/>
      <point x="1436.0" y="1484.0"/>
      <point x="1316.0" y="1484.0" type="curve" smooth="yes"/>
      <point x="1096.0" y="1484.0"/>
      <point x="866" y="1321"/>
    </contour>
  </outline>
</glyph>
<glyph name="cent.lf" format="2">
  <advance width="1023"/>
  <outline>
    <contour>
      <point x="180.0" y="0.0" type="line"/>
      <point x="230.0" y="0.0" type="line"/>
      <point x="1128.0" y="1430.0" type="line"/>
      <point x="1077.0" y="1430.0" type="line"/>
    </contour>
    <contour>
      <point x="804" y="1209" type="curve" smooth="yes"/>
      <point x="854" y="1209.0"/>
      <point x="868" y="1188.0"/>
      <point x="845" y="1100" type="curve" smooth="yes"/>
      <point x="822" y="1012"/>
      <point x="846.0" y="984.0"/>
      <point x="911" y="984" type="curve" smooth="yes"/>
      <point x="985" y="984"/>
      <point x="1028" y="1042"/>
      <point x="1028" y="1104" type="curve" smooth="yes"/>
      <point x="1028" y="1182"/>
      <point x="971" y="1244"/>
      <point x="838" y="1244" type="curve" smooth="yes"/>
      <point x="520" y="1244"/>
      <point x="240" y="860"/>
      <point x="240" y="446" type="curve" smooth="yes"/>
      <point x="240" y="273"/>
      <point x="332" y="180"/>
      <point x="492" y="180" type="curve" smooth="yes"/>
      <point x="643" y="180"/>
      <point x="774" y="275"/>
      <point x="899" y="595" type="curve"/>
      <point x="888" y="597" type="line"/>
      <point x="773" y="381"/>
      <point x="657" y="309"/>
      <point x="549" y="309" type="curve" smooth="yes"/>
      <point x="455" y="309"/>
      <point x="409" y="363"/>
      <point x="409" y="505" type="curve" smooth="yes"/>
      <point x="409" y="813"/>
      <point x="583" y="1209"/>
    </contour>
  </outline>
</glyph>
<glyph name="colonmonetary.lf.1" format="2">
  <advance width="1172"/>
  <outline>
    <contour>
      <point x="926.0" y="1408.0" type="curve" smooth="yes"/>
      <point x="1141.0" y="1408.0"/>
      <point x="1130.0" y="1208.0"/>
      <point x="1207.0" y="1208.0" type="curve" smooth="yes"/>
      <point x="1271.0" y="1208.0"/>
      <point x="1309.0" y="1250.0"/>
      <point x="1309.0" y="1301.0" type="curve" smooth="yes"/>
      <point x="1309.0" y="1359.0"/>
      <point x="1261.0" y="1450.0"/>
      <point x="979.0" y="1450.0" type="curve" smooth="yes"/>
      <point x="481.0" y="1450.0"/>
      <point x="145.0" y="956.0"/>
      <point x="145.0" y="443.0" type="curve" smooth="yes"/>
      <point x="145.0" y="140.0"/>
      <point x="300.0" y="-20.0"/>
      <point x="533.0" y="-20.0" type="curve" smooth="yes"/>
      <point x="710.0" y="-20.0"/>
      <point x="855.0" y="44.0"/>
      <point x="1031.0" y="290.0" type="curve"/>
      <point x="1016.0" y="303.0" type="line"/>
      <point x="870.3545383491223" y="159.37739198316223"/>
      <point x="769.0" y="138.0"/>
      <point x="643.0" y="138.0" type="curve" smooth="yes"/>
      <point x="457.0" y="138.0"/>
      <point x="331.0" y="248.0"/>
      <point x="331.0" y="500.0" type="curve" smooth="yes"/>
      <point x="331.0" y="905.0"/>
      <point x="556.0" y="1408.0"/>
    </contour>
    <contour>
      <point x="983.0" y="1423.0" type="line"/>
      <point x="1094.0" y="1638.0" type="line"/>
      <point x="1042.0" y="1638.0" type="line"/>
      <point x="931.0" y="1423.0" type="line"/>
    </contour>
    <contour>
      <point x="1141.0" y="1381.0" type="line"/>
      <point x="1274.0" y="1638.0" type="line"/>
      <point x="1221.0" y="1638.0" type="line"/>
      <point x="1088.0" y="1381.0" type="line"/>
    </contour>
    <contour>
      <point x="158.0" y="-208.0" type="line"/>
      <point x="210.0" y="-208.0" type="line"/>
      <point x="398.0" y="156.0" type="line"/>
      <point x="346.0" y="156.0" type="line"/>
    </contour>
    <contour>
      <point x="338.0" y="-208.0" type="line"/>
      <point x="391.0" y="-208.0" type="line"/>
      <point x="542.0" y="85.0" type="line"/>
      <point x="489.0" y="85.0" type="line"/>
    </contour>
  </outline>
</glyph>
<glyph name="franc.lf" format="2">
  <advance width="1241"/>
  <outline>
    <contour>
      <point x="1404.0" y="1488.0" type="line"/>
      <point x="1294.0" y="1430.0" type="line"/>
      <point x="698.0" y="1430.0" type="line"/>
      <point x="684.0" y="1380.0" type="line"/>
      <point x="1351.0" y="1380.0" type="line"/>
      <point x="1272.0" y="1406.0" type="line"/>
      <point x="1319.0" y="1042.0" type="line"/>
      <point x="1343.0" y="1042.0" type="line"/>
      <point x="1413.0" y="1488.0" type="line"/>
    </contour>
    <contour>
      <point x="933.0" y="588.0" type="line"/>
      <point x="132.0" y="588.0" type="line"/>
      <point x="115.0" y="535.0" type="line"/>
      <point x="917.0" y="535.0" type="line"/>
    </contour>
    <contour>
      <point x="1031.0" y="906.0" type="line"/>
      <point x="229.0" y="906.0" type="line"/>
      <point x="212.0" y="852.0" type="line"/>
      <point x="1014.0" y="852.0" type="line"/>
    </contour>
    <contour>
      <point x="613.0" y="1370.0" type="line"/>
      <point x="214.0" y="60.0" type="line"/>
      <point x="10.0" y="20.0" type="line"/>
      <point x="3.0" y="0.0" type="line"/>
      <point x="579.0" y="0.0" type="line"/>
      <point x="586.0" y="20.0" type="line"/>
      <point x="399.0" y="60.0" type="line"/>
      <point x="818.0" y="1430.0" type="line"/>
      <point x="415.0" y="1430.0" type="line"/>
      <point x="409.0" y="1410.0" type="line"/>
    </contour>
  </outline>
</glyph>
<glyph name="gravecomb.case" format="2">
  <anchor x="281" y="1430" name="_UCtop"/>
  <anchor x="437" y="1941" name="UCtop"/>
  <outline>
    <contour>
      <point x="347.0" y="1544.0" type="line"/>
      <point x="291.0" y="1870.0" type="line"/>
      <point x="128.0" y="1870.0" type="line"/>
      <point x="126.0" y="1862.0" type="line"/>
      <point x="319.0" y="1544.0" type="line"/>
    </contour>
  </outline>
</glyph>
<glyph name="seven.lf" format="2">
  <advance width="997"/>
  <outline>
    <contour>
      <point x="380.0" y="1262.0" type="line"/>
      <point x="1094.0" y="1262.0" type="line"/>
      <point x="1112.0" y="1302.0" type="line"/>
      <point x="152.0" y="0.0" type="line"/>
      <point x="340.0" y="0.0" type="line"/>
      <point x="1238.0" y="1410.0" type="line"/>
      <point x="1244.0" y="1430.0" type="line"/>
      <point x="465.0" y="1430.0" type="line"/>
      <point x="375.0" y="1480.0" type="line"/>
      <point x="366.0" y="1480.0" type="line"/>
      <point x="184.0" y="990.0" type="line"/>
      <point x="210.0" y="990.0" type="line"/>
      <point x="473.0" y="1303.0" type="line"/>
    </contour>
  </outline>
</glyph>
<glyph name="sterling.lf" format="2">
  <advance width="1187"/>
  <outline>
    <contour>
      <point x="933.0" y="753.0" type="line"/>
      <point x="143.0" y="753.0" type="line"/>
      <point x="127.0" y="700.0" type="line"/>
      <point x="916.0" y="700.0" type="line"/>
    </contour>
    <contour>
      <point x="200.0" y="168.0" type="line"/>
      <point x="222.0" y="156.0" type="line"/>
      <point x="519.0" y="403.0"/>
      <point x="581.0" y="498.0"/>
      <point x="581.0" y="615.0" type="curve" smooth="yes"/>
      <point x="581.0" y="732.0"/>
      <point x="509.0" y="910.0"/>
      <point x="509.0" y="1062.0" type="curve" smooth="yes"/>
      <point x="509.0" y="1214.0"/>
      <point x="614.0" y="1350.0"/>
      <point x="828.0" y="1350.0" type="curve" smooth="yes"/>
      <point x="1040.0" y="1350.0"/>
      <point x="1127.0" y="1217.0"/>
      <point x="1150.0" y="998.0" type="curve"/>
      <point x="1173.0" y="998.0" type="line"/>
      <point x="1158.0" y="1265.0"/>
      <point x="1071.0" y="1450.0"/>
      <point x="800.0" y="1450.0" type="curve" smooth="yes"/>
      <point x="491.0" y="1450.0"/>
      <point x="320.0" y="1233.0"/>
      <point x="320.0" y="1005.0" type="curve" smooth="yes"/>
      <point x="320.0" y="820.0"/>
      <point x="425.0" y="680.0"/>
      <point x="425.0" y="539.0" type="curve" smooth="yes"/>
      <point x="425.0" y="416.0"/>
      <point x="370.0" y="326.0"/>
      <point x="19.0" y="17.0" type="curve"/>
      <point x="14.0" y="0.0" type="line"/>
      <point x="788.0" y="0.0" type="line"/>
      <point x="854.0" y="-36.0" type="line"/>
      <point x="871.0" y="-36.0" type="line"/>
      <point x="1094.0" y="427.0" type="line"/>
      <point x="1069.0" y="427.0" type="line"/>
      <point x="784.0" y="130.0" type="line"/>
      <point x="852.0" y="168.0" type="line"/>
    </contour>
  </outline>
</glyph>
<glyph name="uni0302_tildecomb" format="2">
  <anchor x="157" y="1024" name="_top"/>
  <outline>
    <contour>
      <point x="293.0" y="1274.0" type="line"/>
      <point x="204.0" y="1274.0" type="line"/>
      <point x="413.0" y="1097.0" type="line"/>
      <point x="454.0" y="1097.0" type="line"/>
      <point x="316.0" y="1342.0" type="line"/>
      <point x="192.0" y="1342.0" type="line"/>
      <point x="-93.0" y="1097.0" type="line"/>
      <point x="-43.0" y="1097.0" type="line"/>
    </contour>
    <contour>
      <point x="598.0" y="1598.0" type="curve"/>
      <point x="563.0" y="1598.0" type="line"/>
      <point x="508.0" y="1512.0"/>
      <point x="474.0" y="1484.0"/>
      <point x="427.0" y="1484.0" type="curve" smooth="yes"/>
      <point x="360.0" y="1484.0"/>
      <point x="310.0" y="1604.0"/>
      <point x="222.0" y="1604.0" type="curve" smooth="yes"/>
      <point x="160.0" y="1604.0"/>
      <point x="108.0" y="1565.0"/>
      <point x="4.0" y="1390.0" type="curve"/>
      <point x="39.0" y="1390.0" type="line"/>
      <point x="93.0" y="1475.0"/>
      <point x="127.0" y="1504.0"/>
      <point x="174.0" y="1504.0" type="curve" smooth="yes"/>
      <point x="245.0" y="1504.0"/>
      <point x="291.0" y="1384.0"/>
      <point x="377.0" y="1384.0" type="curve" smooth="yes"/>
      <point x="443.0" y="1384.0"/>
      <point x="495.0" y="1422.0"/>
    </contour>
  </outline>
</glyph>
<glyph name="uni0306_acutecomb.case" format="2">
  <anchor x="281" y="1430" name="_UCtop"/>
  <outline>
    <contour>
      <point x="340.0" y="1721.0" type="line"/>
      <point x="371.0" y="1721.0" type="line"/>
      <point x="732.0" y="1992.0" type="line"/>
      <point x="735.0" y="2004.0" type="line"/>
      <point x="560.0" y="2004.0" type="line"/>
    </contour>
    <contour>
      <point x="331.0" y="1603.0" type="curve" smooth="yes"/>
      <point x="210.0" y="1603.0"/>
      <point x="150.0" y="1639.0"/>
      <point x="145.0" y="1742.0" type="curve"/>
      <point x="112.0" y="1742.0" type="line"/>
      <point x="113.0" y="1544.0"/>
      <point x="167.0" y="1493.0"/>
      <point x="309.0" y="1493.0" type="curve" smooth="yes"/>
      <point x="436.0" y="1493.0"/>
      <point x="516.0" y="1539.0"/>
      <point x="640.0" y="1742.0" type="curve"/>
      <point x="603.0" y="1742.0" type="line"/>
      <point x="534.0" y="1638.0"/>
      <point x="453.0" y="1603.0"/>
    </contour>
  </outline>
</glyph>
<glyph name="uni030A.case" format="2">
  <anchor x="282" y="1430" name="_UCtop"/>
  <anchor x="415" y="1870" name="UCtop"/>
  <outline>
    <contour>
      <point x="389.0" y="1890.0" type="curve" smooth="yes"/>
      <point x="264.0" y="1890.0"/>
      <point x="177.0" y="1795.0"/>
      <point x="177.0" y="1680.0" type="curve" smooth="yes"/>
      <point x="177.0" y="1585.0"/>
      <point x="245.0" y="1523.0"/>
      <point x="341.0" y="1523.0" type="curve" smooth="yes"/>
      <point x="466.0" y="1523.0"/>
      <point x="553.0" y="1618.0"/>
      <point x="553.0" y="1734.0" type="curve" smooth="yes"/>
      <point x="553.0" y="1828.0"/>
      <point x="485.0" y="1890.0"/>
    </contour>
    <contour>
      <point x="347.0" y="1565.0" type="curve" smooth="yes"/>
      <point x="273.0" y="1565.0"/>
      <point x="225.0" y="1607.0"/>
      <point x="225.0" y="1684.0" type="curve" smooth="yes"/>
      <point x="225.0" y="1766.0"/>
      <point x="280.0" y="1848.0"/>
      <point x="383.0" y="1848.0" type="curve" smooth="yes"/>
      <point x="457.0" y="1848.0"/>
      <point x="506.0" y="1806.0"/>
      <point x="506.0" y="1730.0" type="curve" smooth="yes"/>
      <point x="506.0" y="1647.0"/>
      <point x="450.0" y="1565.0"/>
    </contour>
  </outline>
</glyph>
<glyph name="uni20AD.lf" format="2">
  <advance width="1427"/>
  <outline>
    <contour>
      <point x="796.0" y="756.0" type="line"/>
      <point x="771.0" y="703.0" type="line"/>
      <point x="1373.0" y="1376.0" type="line"/>
      <point x="1550.0" y="1410.0" type="line"/>
      <point x="1557.0" y="1430.0" type="line"/>
      <point x="1163.0" y="1430.0" type="line"/>
      <point x="1157.0" y="1410.0" type="line"/>
      <point x="1317.0" y="1376.0" type="line"/>
      <point x="749.0" y="740.0" type="line"/>
      <point x="614.0" y="740.0" type="line"/>
      <point x="908.0" y="0.0" type="line"/>
      <point x="1222.0" y="0.0" type="line"/>
      <point x="1229.0" y="20.0" type="line"/>
      <point x="1073.0" y="70.0" type="line"/>
    </contour>
    <contour>
      <point x="1155.0" y="759.0" type="line"/>
      <point x="182.0" y="759.0" type="line"/>
      <point x="165.0" y="704.0" type="line"/>
      <point x="1138.0" y="704.0" type="line"/>
    </contour>
    <contour>
      <point x="749.0" y="1370.0" type="line"/>
      <point x="927.0" y="1410.0" type="line"/>
      <point x="933.0" y="1430.0" type="line"/>
      <point x="406.0" y="1430.0" type="line"/>
      <point x="400.0" y="1410.0" type="line"/>
      <point x="563.0" y="1370.0" type="line"/>
      <point x="164.0" y="60.0" type="line"/>
      <point x="-14.0" y="20.0" type="line"/>
      <point x="-20.0" y="0.0" type="line"/>
      <point x="507.0" y="0.0" type="line"/>
      <point x="512.0" y="20.0" type="line"/>
      <point x="350.0" y="60.0" type="line"/>
    </contour>
  </outline>
</glyph>
<glyph name="uni20B1.lf" format="2">
  <advance width="1411"/>
  <outline>
    <contour>
      <point x="1425.0" y="888.0" type="line"/>
      <point x="222.0" y="888.0" type="line"/>
      <point x="206.0" y="835.0" type="line"/>
      <point x="1408.0" y="835.0" type="line"/>
    </contour>
    <contour>
      <point x="1522.0" y="1206.0" type="line"/>
      <point x="319.0" y="1206.0" type="line"/>
      <point x="303.0" y="1152.0" type="line"/>
      <point x="1505.0" y="1152.0" type="line"/>
    </contour>
    <contour>
      <point x="588.0" y="1370.0" type="line"/>
      <point x="189.0" y="60.0" type="line"/>
      <point x="11.0" y="20.0" type="line"/>
      <point x="5.0" y="0.0" type="line"/>
      <point x="531.0" y="0.0" type="line"/>
      <point x="536.0" y="20.0" type="line"/>
      <point x="374.0" y="60.0" type="line"/>
      <point x="793.0" y="1430.0" type="line"/>
      <point x="431.0" y="1430.0" type="line"/>
      <point x="425.0" y="1410.0" type="line"/>
    </contour>
    <contour>
      <point x="706.0" y="606.0" type="curve" smooth="yes"/>
      <point x="490.0" y="606.0" type="line"/>
      <point x="427.0" y="561.0" type="line"/>
      <point x="732.0" y="561.0" type="line" smooth="yes"/>
      <point x="1136.0" y="561.0"/>
      <point x="1314.0" y="862.0"/>
      <point x="1314.0" y="1128.0" type="curve" smooth="yes"/>
      <point x="1314.0" y="1301.0"/>
      <point x="1213.0" y="1430.0"/>
      <point x="922.0" y="1430.0" type="curve" smooth="yes"/>
      <point x="699.0" y="1430.0" type="line"/>
      <point x="727.0" y="1385.0" type="line"/>
      <point x="864.0" y="1385.0" type="line" smooth="yes"/>
      <point x="1081.0" y="1385.0"/>
      <point x="1138.0" y="1295.0"/>
      <point x="1138.0" y="1160.0" type="curve" smooth="yes"/>
      <point x="1138.0" y="870.0"/>
      <point x="986.0" y="606.0"/>
    </contour>
  </outline>
</glyph>
<glyph name="uni20B2.lf.1" format="2">
  <advance width="1238"/>
  <outline>
    <contour>
      <point x="333.0" y="442.0" type="curve" smooth="yes"/>
      <point x="333.0" y="929.5041407867495"/>
      <point x="579.0" y="1408.0"/>
      <point x="917.0" y="1408.0" type="curve" smooth="yes"/>
      <point x="1132.0" y="1408.0"/>
      <point x="1121.0" y="1208.0"/>
      <point x="1198.0" y="1208.0" type="curve" smooth="yes"/>
      <point x="1262.0" y="1208.0"/>
      <point x="1300.0" y="1250.0"/>
      <point x="1300.0" y="1301.0" type="curve" smooth="yes"/>
      <point x="1300.0" y="1359.0"/>
      <point x="1252.0" y="1450.0"/>
      <point x="970.0" y="1450.0" type="curve" smooth="yes"/>
      <point x="495.0" y="1450.0"/>
      <point x="149.0" y="977.0"/>
      <point x="149.0" y="472.0" type="curve" smooth="yes"/>
      <point x="149.0" y="165.0"/>
      <point x="289.0" y="-20.0"/>
      <point x="578.0" y="-20.0" type="curve" smooth="yes"/>
      <point x="691.0" y="-20.0"/>
      <point x="844.0" y="2.0"/>
      <point x="981.0" y="70.0" type="curve"/>
      <point x="988.0" y="90.0" type="line"/>
      <point x="926.0" y="90.0" type="line"/>
      <point x="1092.0" y="631.0" type="line"/>
      <point x="1198.0" y="660.0" type="line"/>
      <point x="1204.0" y="680.0" type="line"/>
      <point x="789.0" y="680.0" type="line"/>
      <point x="783.0" y="660.0" type="line"/>
      <point x="908.0" y="628.0" type="line"/>
      <point x="720.0" y="15.0" type="line"/>
      <point x="757.0" y="54.0" type="line"/>
      <point x="683.0" y="28.0"/>
      <point x="638.0" y="22.0"/>
      <point x="588.0" y="22.0" type="curve" smooth="yes"/>
      <point x="419.0" y="22.0"/>
      <point x="333.0" y="126.0"/>
    </contour>
    <contour>
      <point x="972.0" y="1425.0" type="line"/>
      <point x="1037.0" y="1638.0" type="line"/>
      <point x="986.0" y="1638.0" type="line"/>
      <point x="921.0" y="1425.0" type="line"/>
    </contour>
    <contour>
      <point x="422.0" y="-208.0" type="line"/>
      <point x="472.0" y="-208.0" type="line"/>
      <point x="537.0" y="5.0" type="line"/>
      <point x="487.0" y="5.0" type="line"/>
    </contour>
  </outline>
</glyph>
<glyph name="yen.lf" format="2">
  <advance width="1375"/>
  <outline>
    <contour>
      <point x="470.0" y="1376.0" type="line"/>
      <point x="743.0" y="905.0" type="line"/>
      <point x="479.0" y="60.0" type="line"/>
      <point x="264.0" y="20.0" type="line"/>
      <point x="257.0" y="0.0" type="line"/>
      <point x="865.0" y="0.0" type="line"/>
      <point x="872.0" y="20.0" type="line"/>
      <point x="666.0" y="60.0" type="line"/>
      <point x="922.0" y="898.0" type="line"/>
      <point x="1430.0" y="1382.0" type="line"/>
      <point x="1573.0" y="1410.0" type="line"/>
      <point x="1578.0" y="1430.0" type="line"/>
      <point x="1186.0" y="1430.0" type="line"/>
      <point x="1181.0" y="1410.0" type="line"/>
      <point x="1370.0" y="1383.0" type="line"/>
      <point x="888.0" y="924.0" type="line"/>
      <point x="920.0" y="906.0" type="line"/>
      <point x="671.0" y="1378.0" type="line"/>
      <point x="852.0" y="1410.0" type="line"/>
      <point x="857.0" y="1430.0" type="line"/>
      <point x="321.0" y="1430.0" type="line"/>
      <point x="317.0" y="1410.0" type="line"/>
    </contour>
    <contour>
      <point x="1170.0" y="588.0" type="line"/>
      <point x="297.0" y="588.0" type="line"/>
      <point x="281.0" y="535.0" type="line"/>
      <point x="1154.0" y="535.0" type="line"/>
    </contour>
    <contour>
      <point x="1268.0" y="906.0" type="line"/>
      <point x="395.0" y="906.0" type="line"/>
      <point x="378.0" y="852.0" type="line"/>
      <point x="1251.0" y="852.0" type="line"/>
    </contour>
  </outline>
</glyph>
